<svg xmlns="http://www.w3.org/2000/svg" viewBox="0 0 1920 1210"><defs><style>.cls-1{fill:#00bbc1;}.cls-2{fill:#edcaa4;}.cls-3{fill:#fff;}.cls-4{fill:#b5e5e4;}.cls-5{fill:#ec77e8;}.cls-6{fill:#f9e6d4;}</style></defs><g id="Layer_1" data-name="Layer 1"><rect class="cls-1" x="843.64" y="516.83" width="6" height="8" transform="translate(-120.32 751.17) rotate(-45)"/><path class="cls-1" d="M830.33,508.76,819,497.4l4.24-4.24,11.36,11.36ZM807.61,486l-11.36-11.36,4.24-4.24,11.36,11.36Zm-22.72-22.72L773.53,452l4.24-4.24,11.36,11.36ZM762.17,440.6l-11.36-11.36,4.24-4.24,11.36,11.36Zm-22.72-22.72-11.36-11.36,4.24-4.24,11.36,11.36Zm-22.72-22.72L705.37,383.8l4.24-4.24L721,390.92ZM694,372.44l-11.36-11.36,4.24-4.24,11.36,11.36Zm-22.72-22.72-11.36-11.36,4.24-4.25,11.36,11.37ZM648.57,327l-11.36-11.36,4.24-4.25,11.36,11.36Zm-22.73-22.72-11.36-11.36,4.25-4.25L630.09,300Z"/><rect class="cls-1" x="599.42" y="272.61" width="6" height="8" transform="translate(-19.16 506.96) rotate(-45)"/><rect class="cls-1" x="803.07" y="613.63" width="8" height="6"/><path class="cls-1" d="M787,619.63H770.94v-6H787Zm-32.13,0H738.8v-6h16.07Zm-32.13,0H706.67v-6h16.07Zm-32.13,0H674.54v-6h16.07Zm-32.14,0H642.41v-6h16.06Zm-32.13,0H610.28v-6h16.06Zm-32.13,0H578.14v-6h16.07Zm-32.13,0H546v-6h16.07Zm-32.13,0H513.88v-6H530Zm-32.13,0H481.75v-6h16.07Z"/><rect class="cls-1" x="457.68" y="613.63" width="8" height="6"/><rect class="cls-1" x="843.17" y="709.82" width="8" height="6" transform="translate(-256.06 806.04) rotate(-44.91)"/><path class="cls-1" d="M618.94,944.55l-4.24-4.25L626.08,929l4.23,4.25Zm22.75-22.68-4.24-4.25,11.38-11.34,4.24,4.25Zm22.75-22.68-4.24-4.25,11.38-11.33,4.24,4.25Zm22.75-22.67L683,872.27l11.37-11.34,4.24,4.25Zm22.75-22.68-4.23-4.25,11.37-11.34,4.24,4.25Zm22.76-22.68-4.24-4.25,11.37-11.34,4.24,4.25Zm22.75-22.68-4.24-4.25,11.38-11.34,4.23,4.25Zm22.75-22.67L774,781.56l11.38-11.34,4.23,4.25ZM801,763.13l-4.24-4.25,11.38-11.34,4.24,4.25Zm22.75-22.68-4.24-4.25,11.38-11.34,4.24,4.25Z"/><rect class="cls-1" x="598.61" y="953.59" width="8" height="6" transform="translate(-499.5 704.51) rotate(-44.91)"/><rect class="cls-1" x="1059.83" y="732.83" width="6" height="8" transform="translate(-209.62 967.89) rotate(-45.02)"/><path class="cls-1" d="M1266.36,944.43l-11.26-11.26,4.24-4.24,11.26,11.26Zm-22.53-22.52-11.27-11.25,4.24-4.25,11.27,11.26Zm-22.54-22.51L1210,888.14l4.24-4.25,11.27,11.26Zm-22.53-22.52-11.27-11.26,4.24-4.24L1203,872.64Zm-22.54-22.52L1165,843.1l4.24-4.24,11.27,11.26Zm-22.54-22.51-11.26-11.26,4.24-4.25,11.26,11.26Zm-22.53-22.52-11.27-11.26,4.24-4.24,11.27,11.25Zm-22.54-22.52-11.27-11.26,4.24-4.24,11.27,11.26Zm-22.53-22.52L1074.81,753l4.24-4.25,11.27,11.26Z"/><rect class="cls-1" x="1279.58" y="952.4" width="6" height="8" transform="translate(-300.49 1187.86) rotate(-45.03)"/><rect class="cls-1" x="1099" y="612" width="6" height="8" transform="translate(484.79 1717.33) rotate(-89.94)"/><path class="cls-1" d="M1402.82,619.34l-16.49,0v-6l16.49,0Zm-33,0-16.49,0v-6l16.49,0Zm-33,0-16.49,0v-6l16.49,0Zm-33,0-16.49,0v-6l16.49,0Zm-33,0-16.49,0v-6l16.49,0Zm-33,0-16.49,0v-6l16.49,0Zm-33,0-16.49,0v-6l16.5,0Zm-33,0-16.49,0v-6l16.49,0Zm-33,0-16.49,0v-6l16.49,0Z"/><rect class="cls-1" x="1420.32" y="612.36" width="6" height="8" transform="translate(805.39 2039) rotate(-89.94)"/><rect class="cls-1" x="1049.83" y="502.17" width="8" height="6" transform="translate(-48.42 893.51) rotate(-45.02)"/><path class="cls-1" d="M1070.51,492.72l-4.25-4.24L1078,476.74l4.24,4.24ZM1094,469.24l-4.24-4.24,11.73-11.75,4.25,4.24Zm23.47-23.49-4.25-4.24,11.74-11.74,4.24,4.24Zm23.46-23.48-4.24-4.24,11.73-11.74,4.24,4.24Zm23.47-23.48-4.25-4.25,11.74-11.74,4.24,4.24Zm23.46-23.49-4.24-4.24,11.73-11.74,4.24,4.24Zm23.47-23.48-4.25-4.24,11.73-11.74,4.25,4.24Zm23.46-23.48-4.24-4.25,11.73-11.74,4.24,4.24Zm23.46-23.49-4.24-4.24,11.73-11.74,4.25,4.24Z"/><rect class="cls-1" x="1278.4" y="273.42" width="8" height="6" transform="translate(180.39 988.13) rotate(-45.02)"/><circle class="cls-2" cx="1262.85" cy="909.64" r="74.13"/><path class="cls-3" d="M1270.39,961.6c6.06-18.61,21.45-42.16,21.75-42.62-9.47,9.58-18.06,25.19-24,37.52-6-37.72-4.27-38.78,31.88-57.18C1316.82,938.47,1296.73,953.16,1270.39,961.6Z"/><path class="cls-3" d="M1264.87,950.36c-7.83-24.05-27.72-54.48-28.1-55.07,12.23,12.38,23.33,32.55,31,48.48,7.73-48.74,5.51-50.11-41.2-73.89C1204.88,920.47,1230.84,939.45,1264.87,950.36Z"/><circle class="cls-2" cx="506.64" cy="620.31" r="77.35"/><path class="cls-3" d="M508.15,666.06,504,661.89q-18.8-18.84-37.6-37.68a24.37,24.37,0,0,1,13.18-41.76,23.91,23.91,0,0,1,20.85,6.9c2.61,2.53,5.14,5.14,7.77,7.77.35-.31.64-.57.92-.85,2.86-2.8,5.53-5.82,8.61-8.37,7.06-5.84,15.17-7.31,23.77-4.19s14,9.46,15.67,18.51a23,23,0,0,1-6.5,21.34c-14,14.15-28.08,28.15-42.13,42.21C508.44,665.85,508.35,665.9,508.15,666.06Z"/><circle class="cls-2" cx="639.64" cy="919.31" r="77.35"/><path class="cls-3" d="M648.93,859.9c3,1.21,4.06,3.44,3.86,6.59-.23,3.76.16,7.58-.39,11.27a17.5,17.5,0,0,1-17,14.65c-2.29.06-4.58,0-6.86,0-.73,0-1.63-.09-1.64.91s.94,1,1.7,1c12.78,0,25.56,0,38.33,0a12.42,12.42,0,0,1,1.49,24.77c-.85.07-1.7.09-2.55.09H608.73c-.82,0-2.11-.37-2.14.94s1.27,1,2.09,1q23.54,0,47.08,0a13.84,13.84,0,0,1,9.53,3.36,12,12,0,0,1,3.46,13.21A12.31,12.31,0,0,1,657.54,946c-7.31.1-14.62,0-21.93,0h-15.2a2.21,2.21,0,0,0-.93,0,8.29,8.29,0,0,0-1.24.92c.4.31.77.81,1.21.9a10.82,10.82,0,0,0,2.28,0c3.9,0,7.8,0,11.7,0a16.91,16.91,0,0,1,17.25,16.9c.08,3.4.06,6.81,0,10.22-.05,3.57-2.19,5.44-6.06,5.41-3.34,0-5.39-2.11-5.4-5.51,0-3,0-6,0-9a6.13,6.13,0,0,0-6.5-6.49c-4.93,0-9.86,0-14.79,0a13.16,13.16,0,0,1-12.56-8.83c-2.28-7.09,2.6-16.12,12.64-16.07,11.83.06,23.67,0,35.51,0a3.13,3.13,0,0,0,1.19,0,6.87,6.87,0,0,0,1.35-1c-.47-.31-.92-.88-1.4-.89-3.09-.09-6.18,0-9.28,0q-19.3,0-38.6,0a13.13,13.13,0,0,1-11.8-6.25c-4.87-7.65.59-18,9.68-18.55.76,0,1.53,0,2.29,0q28.51,0,57,0c.82,0,2.11.38,2.14-.91,0-1.5-1.36-1-2.18-1-12.24,0-24.48,0-36.72,0-5.46,0-9.79-2.24-12.37-7.13-4.22-8,1.73-17.52,11-17.77,2.33-.06,4.67,0,7,0a8.26,8.26,0,0,0,8.5-8.5c0-2,.13-3.95,0-5.91-.24-3.15.88-5.39,3.85-6.6Z"/><path class="cls-3" d="M586,916.29c.23.24.8.58.78.86a1.56,1.56,0,0,1-.8,1.14c-1.87.6-3.78,1.08-5.68,1.6a23.83,23.83,0,0,1-2.85.73,1.33,1.33,0,0,1-1.12-.61,1.25,1.25,0,0,1,.51-1.14C579.83,918,582.81,917.18,586,916.29Z"/><path class="cls-3" d="M597.65,900.44c-.25.25-.59.84-.87.81a1.54,1.54,0,0,1-1.12-.81c-.61-1.87-1.09-3.78-1.61-5.68a24,24,0,0,1-.73-2.86,1.33,1.33,0,0,1,.61-1.12,1.26,1.26,0,0,1,1.14.51C596,894.25,596.76,897.23,597.65,900.44Z"/><path class="cls-3" d="M695.49,913.07l-3-1.16c-1.82-.71-3.67-1.37-5.46-2.17a1.55,1.55,0,0,1-.78-1.26c.13-.75.8-.78,1.49-.51,2.61,1,5.24,2,7.82,3.09a1.87,1.87,0,0,1,.81,1.27C696.43,912.53,695.76,912.86,695.49,913.07Z"/><path class="cls-3" d="M696.05,892.84a3.37,3.37,0,0,1,.43,1.26,1.61,1.61,0,0,1-.64,1.14c-1.22.64-2.51,1.16-3.78,1.71s-2.62,1.13-3.92,1.72c-.68.3-1.42.45-1.65-.38-.1-.36.4-1.15.82-1.35,2.45-1.17,5-2.24,7.45-3.33a6.18,6.18,0,0,1,.76-.26Z"/><path class="cls-3" d="M579.82,901.08c.44.2.77.33,1.08.51,2.28,1.3,4.56,2.62,6.85,3.92.62.35,1.25.76.83,1.55s-1.2.51-1.84.14c-2.37-1.35-4.74-2.68-7.06-4.09a1.87,1.87,0,0,1-.64-1.29C579,901.6,579.55,901.32,579.82,901.08Z"/><path class="cls-3" d="M684.11,881.79c-.44,1.16-.79,2.07-1.15,3-.69,1.79-1.33,3.61-2.12,5.36-.2.42-.89.62-1.36.93-.15-.53-.55-1.15-.4-1.57.92-2.61,1.93-5.19,3-7.75a1.92,1.92,0,0,1,1.28-.83C683.56,880.88,683.9,881.53,684.11,881.79Z"/><path d="M225.22,259.16v23.45H221l-9.81-14.51v14.51H206.3V259.16h4.23l9.84,14.72V259.16Z"/><path d="M244.7,275.1c0,4.66-2.37,7.82-7.88,7.82-5.29,0-7.88-3.06-7.88-7.82v-2c0-5.1,2.89-7.75,7.88-7.75s7.88,2.65,7.88,7.75Zm-4.63-.14V273.2c0-2.72-.95-4.22-3.25-4.22s-3.24,1.5-3.24,4.22V275c0,2.45.65,4.29,3.24,4.29S240.07,277.41,240.07,275Z"/><path d="M262.75,272.41h3.61v-1c0-1.91-.62-2.52-3.24-2.52-1.79,0-2.66.24-3.43,1.36l-3.28-2.14c1.35-2.07,3.39-2.82,7.15-2.82,4.7,0,7.36,1.29,7.36,6.15v11.15h-4.56v-1.49c-.73,1.15-1.82,1.8-3.94,1.8-3.79,0-6.41-1.87-6.41-5.34S258.92,272.41,262.75,272.41Zm3.61,3.2H263.3c-1.9,0-2.73.58-2.73,1.9s1.05,1.91,2.66,1.91c2.11,0,3.13-.85,3.13-3.16Z"/><path d="M285.11,259.16h4.63v23.45h-4.63v-1a5.73,5.73,0,0,1-3.9,1.29c-4.78,0-7.22-3.16-7.22-7.68v-2.32c0-5,2.88-7.61,7.22-7.61a6,6,0,0,1,3.9,1.19Zm0,15.8v-2.14c0-2.48-1.06-3.84-3.25-3.84s-3.24,1.5-3.24,4.22V275c0,2.45.73,4.29,3.24,4.29S285.11,277.41,285.11,275Z"/><path d="M304,259.16h4.64v23.45H304v-1a5.7,5.7,0,0,1-3.9,1.29c-4.77,0-7.22-3.16-7.22-7.68v-2.32c0-5,2.88-7.61,7.22-7.61a6,6,0,0,1,3.9,1.19Zm0,15.8v-2.14c0-2.48-1-3.84-3.24-3.84s-3.25,1.5-3.25,4.22V275c0,2.45.73,4.29,3.25,4.29S304,277.41,304,275Z"/><path d="M326.47,280c-1.28,2.07-3.39,2.89-6.68,2.89-5.47,0-8.09-3.3-8.09-7.68v-2.32c0-5.13,2.77-7.61,7.51-7.61,5.14,0,7.51,2.79,7.51,7.95v1.94H316.33c0,2.35.84,4.05,3.43,4.05,1.93,0,2.55-.55,3.24-1.46Zm-10.14-7.92h5.72c-.1-2.21-1.05-3.13-2.8-3.13S316.51,270.17,316.33,272.11Z"/><path d="M340.54,259.16h4.64v23.45h-4.64v-1a5.7,5.7,0,0,1-3.9,1.29c-4.77,0-7.22-3.16-7.22-7.68v-2.32c0-5,2.88-7.61,7.22-7.61a6,6,0,0,1,3.9,1.19Zm0,15.8v-2.14c0-2.48-1.05-3.84-3.24-3.84s-3.25,1.5-3.25,4.22V275c0,2.45.73,4.29,3.25,4.29S340.54,277.41,340.54,275Z"/><path d="M368,270.41c-.8-.89-1.6-1.36-3.57-1.36-1.2,0-2.3.34-2.3,1.32s1,1.4,2.92,1.67c4.49.65,6.75,2.24,6.75,5.61s-2.45,5.27-7.15,5.27c-3.72,0-6-.85-7.55-2.82l3.57-2.38c.73.92,1.65,1.46,3.91,1.46,1.6,0,2.59-.51,2.59-1.39,0-1.06-.81-1.4-3.1-1.74-3.8-.58-6.57-2.07-6.57-5.51,0-3.23,2.48-5.23,7-5.23,3,0,5.47.65,6.89,2.82Z"/><path d="M390.4,282.61h-4.56v-1.42c-.76,1.15-1.75,1.73-4.15,1.73-3.69,0-6.71-1.7-6.71-6.7v-10.6h4.66v10c0,2.68,1,3.6,3,3.6,2.15,0,3.17-1.22,3.17-3.57v-10h4.63Z"/><path d="M404.62,265.62h4.64v16.65c0,5.68-3.43,7-8,7-3.39,0-5.54-.75-7.14-3.06l3.13-2.11a4.11,4.11,0,0,0,3.58,1.53c2.77,0,3.82-.75,3.82-3.37v-.54a6,6,0,0,1-3.9,1.19c-4.77,0-7.22-3.16-7.22-7.68v-2.32c0-5,2.88-7.61,7.22-7.61a6,6,0,0,1,3.9,1.19Zm0,9.72V273.2c0-2.72-.94-4.22-3.24-4.22s-3.25,1.5-3.25,4.22V275c0,2.45.73,4.29,3.25,4.29S404.62,277.58,404.62,275.34Z"/><path d="M418.85,272.41h3.61v-1c0-1.91-.62-2.52-3.25-2.52-1.78,0-2.66.24-3.42,1.36l-3.29-2.14c1.35-2.07,3.4-2.82,7.15-2.82,4.71,0,7.37,1.29,7.37,6.15v11.15h-4.56v-1.49c-.73,1.15-1.82,1.8-3.94,1.8-3.79,0-6.42-1.87-6.42-5.34S415,272.41,418.85,272.41Zm3.61,3.2H419.4c-1.9,0-2.74.58-2.74,1.9s1.06,1.91,2.66,1.91c2.12,0,3.14-.85,3.14-3.16Z"/><path d="M440.62,270.34a2.7,2.7,0,0,0-2.3-1.29c-1.75,0-2.91,1.19-2.91,3.57v10h-4.67v-17h4.56V267a4.62,4.62,0,0,1,4-1.73A5.42,5.42,0,0,1,444.2,268Z"/><path d="M458.46,269.59a8,8,0,0,1-2.41-5.4c0-3.23,2.92-5.34,6.89-5.34,4.56,0,6.82,2.24,6.82,4.66,0,2.61-2.59,4.52-5.21,6.32l4.81,5a9.48,9.48,0,0,0,.51-3.16h4.82a11.91,11.91,0,0,1-2,6.63l4.19,4.31H471l-1.39-1.39a12.77,12.77,0,0,1-6.74,1.7c-5.62,0-8.68-3.2-8.68-6.53C454.23,273.3,456.2,271.26,458.46,269.59Zm8.2,8.54-5.58-5.72a4.64,4.64,0,0,0-1.89,3.3c0,1.94,1.56,3.2,3.93,3.2A7.47,7.47,0,0,0,466.66,278.13Zm-4.48-10.95c1.67-1.09,3-2.11,3-3.4,0-.85-.77-1.63-2.15-1.63a1.91,1.91,0,0,0-2.12,2A5.27,5.27,0,0,0,462.18,267.18Z"/><path d="M221.65,306.42h4.56v1.42a5.4,5.4,0,0,1,4.19-1.73c3.69,0,6.68,1.63,6.68,6.66v10.64h-4.63v-10c0-2.65-1-3.6-2.92-3.6-2.15,0-3.21,1.32-3.21,3.57v10h-4.67Z"/><path d="M255.93,315.9c0,4.66-2.37,7.82-7.87,7.82-5.29,0-7.88-3.06-7.88-7.82v-2c0-5.1,2.88-7.75,7.88-7.75s7.87,2.65,7.87,7.75Zm-4.63-.14V314c0-2.72-1-4.22-3.24-4.22s-3.25,1.5-3.25,4.22v1.76c0,2.45.66,4.29,3.25,4.29S251.3,318.21,251.3,315.76Z"/><path d="M283.94,316c0,4.42-2.4,7.68-7.11,7.68a6.44,6.44,0,0,1-4-1v7.14h-4.67V306.42h4.67v1.12a5.32,5.32,0,0,1,4.05-1.43c4.23,0,7.07,2.75,7.07,7.61Zm-4.67-.28V314c0-2.72-.91-4.22-3.2-4.22s-3.25,1.36-3.25,3.84v2.14c0,2.45.62,4.29,3.25,4.29S279.27,318.21,279.27,315.76Z"/><path d="M296.89,311.14a2.7,2.7,0,0,0-2.3-1.29c-1.75,0-2.91,1.19-2.91,3.57v10H287v-17h4.56v1.42a4.62,4.62,0,0,1,4-1.73,5.39,5.39,0,0,1,4.92,2.65Z"/><path d="M315.82,320.83c-1.28,2.07-3.39,2.89-6.67,2.89-5.48,0-8.1-3.3-8.1-7.68v-2.32c0-5.13,2.77-7.61,7.51-7.61,5.14,0,7.51,2.79,7.51,7.95V316H305.68c0,2.35.84,4.05,3.43,4.05,1.93,0,2.55-.55,3.24-1.46Zm-10.14-7.92h5.73c-.11-2.21-1.06-3.13-2.81-3.13S305.86,311,305.68,312.91Z"/><path d="M329.42,311.21c-.8-.89-1.6-1.36-3.57-1.36-1.2,0-2.3.34-2.3,1.32s1,1.4,2.92,1.67c4.48.65,6.74,2.24,6.74,5.61s-2.44,5.27-7.14,5.27c-3.72,0-6-.85-7.55-2.82l3.57-2.38c.73.92,1.64,1.46,3.9,1.46,1.61,0,2.59-.51,2.59-1.39,0-1.06-.8-1.4-3.1-1.74-3.79-.58-6.56-2.07-6.56-5.51,0-3.23,2.48-5.23,7-5.23,3,0,5.47.64,6.89,2.82Z"/><path d="M350.47,320.83c-1.28,2.07-3.39,2.89-6.68,2.89-5.47,0-8.09-3.3-8.09-7.68v-2.32c0-5.13,2.77-7.61,7.51-7.61,5.14,0,7.51,2.79,7.51,7.95V316H340.33c0,2.35.84,4.05,3.43,4.05,1.93,0,2.55-.55,3.24-1.46Zm-10.14-7.92h5.72c-.11-2.21-1.05-3.13-2.8-3.13S340.51,311,340.33,312.91Z"/><path d="M364,311.14a2.7,2.7,0,0,0-2.3-1.29c-1.75,0-2.91,1.19-2.91,3.57v10h-4.67v-17h4.56v1.42a4.62,4.62,0,0,1,4-1.73,5.39,5.39,0,0,1,4.92,2.65Z"/><path d="M385.55,306.42l-6.93,17h-4.37l-7.08-17h5.11l4.08,11,4.05-11Z"/><path d="M393.14,313.21h3.61v-1c0-1.91-.62-2.52-3.25-2.52-1.78,0-2.66.24-3.42,1.36l-3.29-2.14c1.35-2.07,3.39-2.82,7.15-2.82,4.7,0,7.37,1.29,7.37,6.15v11.15h-4.56v-1.49c-.73,1.15-1.83,1.8-3.94,1.8-3.79,0-6.42-1.87-6.42-5.34S389.31,313.21,393.14,313.21Zm3.61,3.2h-3.06c-1.9,0-2.74.58-2.74,1.9s1.06,1.91,2.66,1.91c2.12,0,3.14-.85,3.14-3.16Z"/><path d="M403.68,306.42H406v-3.74h4.63v3.74h3.58v3.67h-3.58v7.1c0,1.7.37,2.42,2.08,2.42h1.5v3.8h-2c-4.41,0-6.24-1.15-6.24-5.54v-7.78h-2.33Z"/><path d="M417.46,300h5v4.21h-5Zm.19,6.46h4.67v17h-4.67Z"/><path d="M443.1,306.42l-6.93,17H431.8l-7.08-17h5.11l4.08,11,4-11Z"/><path d="M458.57,320.83c-1.28,2.07-3.39,2.89-6.68,2.89-5.47,0-8.09-3.3-8.09-7.68v-2.32c0-5.13,2.77-7.61,7.51-7.61,5.14,0,7.51,2.79,7.51,7.95V316H448.43c0,2.35.84,4.05,3.43,4.05,1.93,0,2.55-.55,3.24-1.46Zm-10.14-7.92h5.73c-.11-2.21-1.06-3.13-2.81-3.13S448.61,311,448.43,312.91Z"/><path d="M472.17,311.21c-.8-.89-1.6-1.36-3.57-1.36-1.21,0-2.3.34-2.3,1.32s1,1.4,2.92,1.67c4.48.65,6.74,2.24,6.74,5.61s-2.44,5.27-7.14,5.27c-3.72,0-6-.85-7.55-2.82l3.57-2.38c.73.92,1.64,1.46,3.9,1.46,1.61,0,2.59-.51,2.59-1.39,0-1.06-.8-1.4-3.1-1.74-3.79-.58-6.56-2.07-6.56-5.51,0-3.23,2.48-5.23,7-5.23,3,0,5.47.64,6.89,2.82Z"/><path d="M1539.8,589.86a5.27,5.27,0,0,1-2.28.44c-3.6,0-6.46-3-6.46-7,0-5.2,3.54-7.54,7.89-7.54s7.92,2.31,7.92,7.51c0,1.84-.85,4-2.18,6.7l-4.72,9.55h-5.1Zm-.85-10.1c-2,0-3.13,1.36-3.13,3.33a3.15,3.15,0,1,0,3.13-3.33Z"/><path d="M1565.19,592.34c0,5.27-3.67,7.48-7.88,7.48s-7.89-2.21-7.89-7.48v-9.11c0-5.51,3.67-7.48,7.89-7.48s7.88,2,7.88,7.44Zm-7.88-12.58c-2.14,0-3.16,1.36-3.16,3.87v8.3c0,2.51,1,3.87,3.16,3.87s3.12-1.36,3.12-3.87v-8.3C1560.43,581.12,1559.42,579.76,1557.31,579.76Z"/><path d="M1567.51,587.78h8.8v3.81h-8.8Z"/><path d="M1589.71,599.51H1585V581l-3.37,2.21v-4.59l3.84-2.59h4.29Z"/><path d="M1611.91,599.51h-14.48v-3.06l7.85-9.25c1.46-1.7,2.18-3.12,2.18-4.65a2.75,2.75,0,0,0-2.93-2.86,2.79,2.79,0,0,0-2.92,2.86h-4.22c0-4,3.33-6.8,7.38-6.8,4.22,0,7.41,2.92,7.41,6.8,0,3.09-2,5.5-3.53,7.27l-4.83,5.68h8.09Z"/><path d="M1631.12,592.34c0,5.27-3.67,7.48-7.89,7.48s-7.88-2.21-7.88-7.48v-9.11c0-5.51,3.67-7.48,7.88-7.48s7.89,2,7.89,7.44Zm-7.89-12.58c-2.14,0-3.16,1.36-3.16,3.87v8.3c0,2.51,1,3.87,3.16,3.87s3.13-1.36,3.13-3.87v-8.3C1626.36,581.12,1625.34,579.76,1623.23,579.76Z"/><path d="M1656.59,599.51h-4.32v-10c0-2.72-1.06-3.6-2.59-3.6s-2.68,1.15-2.68,3.57v10h-4.35v-17h4.25v1.43a4.5,4.5,0,0,1,3.77-1.73,5.56,5.56,0,0,1,4.76,2.27,6.21,6.21,0,0,1,4.9-2.27c3.7,0,5.88,2.24,5.88,6.66v10.64h-4.35v-10c0-2.55-.89-3.6-2.62-3.6-1.57,0-2.65,1.15-2.65,3.57Z"/><path d="M1679.43,582.51h4.32v16.66c0,5.68-3.19,7-7.48,7-3.16,0-5.17-.74-6.66-3.06l2.92-2.1a3.73,3.73,0,0,0,3.33,1.53c2.59,0,3.57-.75,3.57-3.37v-.54a5.36,5.36,0,0,1-3.63,1.19c-4.46,0-6.74-3.17-6.74-7.69v-2.31c0-5,2.69-7.61,6.74-7.61a5.31,5.31,0,0,1,3.63,1.19Zm0,9.72v-2.14c0-2.72-.88-4.21-3-4.21s-3,1.49-3,4.21v1.77c0,2.45.68,4.28,3,4.28S1679.43,594.48,1679.43,592.23Z"/><path d="M1708.91,596.93c-1.19,2-3.13,2.89-6.19,2.89-4.86,0-7.58-3.06-7.58-7.69v-2.31c0-5,2.76-7.61,7.82-7.61,2.62,0,4.76.95,6,2.82l-3.26,2.28a3.21,3.21,0,0,0-2.79-1.43c-2.45,0-3.4,1.49-3.4,4.21v1.77c0,2.45.65,4.28,3.4,4.28a3,3,0,0,0,2.82-1.46Z"/><path d="M1716.26,589.31h3.36v-1c0-1.91-.58-2.52-3-2.52-1.67,0-2.48.24-3.2,1.36l-3.06-2.14c1.26-2.08,3.16-2.82,6.66-2.82,4.39,0,6.87,1.29,6.87,6.15v11.15h-4.25V598c-.68,1.16-1.7,1.81-3.67,1.81-3.53,0-6-1.87-6-5.34S1712.69,589.31,1716.26,589.31Zm3.36,3.2h-2.85c-1.77,0-2.55.57-2.55,1.9s1,1.9,2.48,1.9c2,0,2.92-.85,2.92-3.16Z"/><path d="M1728.26,582.51v-.92c0-4.38,1.7-5.54,5.81-5.54h1.26v3.81h-.82c-1.59,0-1.93.71-1.93,2.41v.24h2.75v3.67h-2.75v13.33h-4.32V586.18h-2.18v-3.67Z"/><path d="M1738.49,582.51v-.92c0-4.38,1.7-5.54,5.82-5.54h1.25v3.81h-.81c-1.6,0-1.94.71-1.94,2.41v.24h2.75v3.67h-2.75v13.33h-4.32V586.18h-2.17v-3.67Z"/><path d="M1761,596.93c-1.19,2.07-3.17,2.89-6.23,2.89-5.1,0-7.54-3.3-7.54-7.69v-2.31c0-5.13,2.58-7.61,7-7.61,4.79,0,7,2.78,7,7.95v1.94h-9.69c0,2.34.79,4,3.2,4a3,3,0,0,0,3-1.46Zm-9.46-7.92h5.34c-.1-2.21-1-3.13-2.62-3.13S1751.68,587.07,1751.51,589Z"/><path d="M1764.67,576.05h4.69v4.22h-4.69Zm.17,6.46h4.35v17h-4.35Z"/><path d="M1773.17,582.51h4.25v1.43a4.91,4.91,0,0,1,3.91-1.73c3.44,0,6.22,1.63,6.22,6.66v10.64h-4.31v-10c0-2.65-1-3.6-2.72-3.6-2,0-3,1.32-3,3.57v10h-4.35Z"/><path d="M1804.21,596.93c-1.19,2.07-3.16,2.89-6.22,2.89-5.1,0-7.55-3.3-7.55-7.69v-2.31c0-5.13,2.59-7.61,7-7.61,4.79,0,7,2.78,7,7.95v1.94h-9.69c0,2.34.78,4,3.2,4a3,3,0,0,0,3-1.46Zm-9.45-7.92h5.34c-.1-2.21-1-3.13-2.62-3.13S1794.93,587.07,1794.76,589Z"/><path d="M1597.9,632.93c0,4.42-2.24,7.69-6.63,7.69a5.7,5.7,0,0,1-3.74-1v7.14h-4.35V623.31h4.35v1.12a4.8,4.8,0,0,1,3.78-1.42c3.94,0,6.59,2.75,6.59,7.61Zm-4.35-.27v-1.77c0-2.72-.85-4.21-3-4.21s-3,1.36-3,3.84v2.14c0,2.45.58,4.28,3,4.28S1593.55,635.11,1593.55,632.66Z"/><path d="M1613.92,637.73c-1.19,2.07-3.17,2.89-6.22,2.89-5.1,0-7.55-3.3-7.55-7.69v-2.31c0-5.13,2.58-7.61,7-7.61,4.79,0,7,2.78,7,8v1.94h-9.69c0,2.34.79,4,3.2,4a3,3,0,0,0,3-1.46Zm-9.46-7.92h5.34c-.1-2.21-1-3.13-2.61-3.13S1604.63,627.87,1604.46,629.81Z"/><path d="M1626.5,628a2.52,2.52,0,0,0-2.14-1.29c-1.64,0-2.73,1.19-2.73,3.56v10h-4.35v-17h4.25v1.43a4.22,4.22,0,0,1,3.71-1.73,5,5,0,0,1,4.59,2.65Z"/><path d="M1649,628.11a3.67,3.67,0,0,0-3.33-1.36c-1.13,0-2.15.34-2.15,1.32s.92,1.4,2.72,1.67c4.19.64,6.29,2.24,6.29,5.61s-2.27,5.27-6.66,5.27c-3.47,0-5.58-.85-7-2.83l3.34-2.38c.67.92,1.52,1.47,3.63,1.47,1.5,0,2.42-.51,2.42-1.4,0-1.05-.75-1.39-2.89-1.73-3.54-.58-6.12-2.08-6.12-5.51,0-3.23,2.31-5.23,6.56-5.23,2.79,0,5.1.64,6.42,2.82Z"/><path d="M1668.66,637.73c-1.2,2.07-3.17,2.89-6.23,2.89-5.1,0-7.54-3.3-7.54-7.69v-2.31c0-5.13,2.58-7.61,7-7.61,4.79,0,7,2.78,7,8v1.94h-9.69c0,2.34.79,4,3.2,4a3,3,0,0,0,3-1.46Zm-9.46-7.92h5.34c-.1-2.21-1-3.13-2.62-3.13S1659.37,627.87,1659.2,629.81Z"/><path d="M1681.24,628a2.52,2.52,0,0,0-2.15-1.29c-1.63,0-2.72,1.19-2.72,3.56v10H1672v-17h4.25v1.43A4.22,4.22,0,0,1,1680,623a5,5,0,0,1,4.59,2.65Z"/><path d="M1701.36,623.31l-6.46,17h-4.08l-6.59-17H1689l3.8,11,3.78-11Z"/><path d="M1703.44,616.85h4.69v4.22h-4.69Zm.17,6.46H1708v17h-4.35Z"/><path d="M1711.94,623.31h4.25v1.43a4.87,4.87,0,0,1,3.91-1.73c3.43,0,6.22,1.63,6.22,6.66v10.64H1722v-10c0-2.65-1-3.6-2.72-3.6-2,0-3,1.32-3,3.56v10h-4.35Z"/><path d="M1739.58,623.31h4.32V640c0,5.68-3.2,7-7.48,7-3.17,0-5.17-.74-6.67-3.06l2.93-2.1a3.71,3.71,0,0,0,3.33,1.53c2.58,0,3.57-.75,3.57-3.37v-.54a5.4,5.4,0,0,1-3.64,1.19c-4.45,0-6.73-3.17-6.73-7.69v-2.31c0-5,2.68-7.61,6.73-7.61a5.35,5.35,0,0,1,3.64,1.19Zm0,9.72v-2.14c0-2.72-.89-4.21-3-4.21s-3,1.49-3,4.21v1.77c0,2.45.68,4.28,3,4.28S1739.58,635.28,1739.58,633Z"/><path d="M163.75,568.24v4h-9.86v5.27h8.84v4h-8.84v6.12h9.86v4H149.13V568.24Z"/><path d="M171.91,581.49h3.37v-1c0-1.91-.58-2.52-3-2.52-1.66,0-2.48.24-3.19,1.36L166,577.21c1.26-2.07,3.16-2.82,6.66-2.82,4.39,0,6.87,1.29,6.87,6.15v11.15h-4.25V590.2c-.68,1.15-1.7,1.8-3.67,1.8-3.54,0-6-1.87-6-5.34S168.34,581.49,171.91,581.49Zm3.37,3.2h-2.86c-1.76,0-2.54.58-2.54,1.9s1,1.91,2.48,1.91c2,0,2.92-.85,2.92-3.16Z"/><path d="M196.16,589.11C195,591.12,193,592,190,592c-4.86,0-7.58-3.06-7.58-7.68V582c0-5,2.75-7.61,7.82-7.61a6.7,6.7,0,0,1,5.95,2.82l-3.27,2.28a3.21,3.21,0,0,0-2.79-1.43c-2.44,0-3.39,1.5-3.39,4.22V584c0,2.45.64,4.29,3.39,4.29a3,3,0,0,0,2.83-1.46Z"/><path d="M198.16,568.24h4.35V576a4.55,4.55,0,0,1,3.81-1.63c3.44,0,6.22,1.63,6.22,6.66v10.64h-4.31v-10c0-2.65-1-3.6-2.72-3.6-2,0-3,1.32-3,3.57v10h-4.35Z"/><path d="M233.86,579.49a3.66,3.66,0,0,0-3.33-1.36c-1.12,0-2.14.34-2.14,1.32s.92,1.4,2.72,1.67c4.18.65,6.29,2.24,6.29,5.61s-2.28,5.27-6.67,5.27c-3.46,0-5.57-.85-7-2.82L227,586.8c.68.92,1.53,1.46,3.64,1.46,1.49,0,2.41-.51,2.41-1.39,0-1.06-.75-1.4-2.89-1.74-3.54-.58-6.12-2.07-6.12-5.51,0-3.22,2.31-5.23,6.56-5.23,2.79,0,5.1.65,6.43,2.82Z"/><path d="M253.48,589.11c-1.19,2.07-3.16,2.89-6.22,2.89-5.1,0-7.55-3.3-7.55-7.68V582c0-5.13,2.58-7.61,7-7.61,4.8,0,7,2.79,7,8v1.94H244c0,2.35.78,4.05,3.19,4.05a3,3,0,0,0,3-1.46ZM244,581.19h5.34c-.11-2.21-1-3.13-2.62-3.13S244.2,579.25,244,581.19Z"/><path d="M266.06,579.42a2.49,2.49,0,0,0-2.14-1.29c-1.63,0-2.72,1.19-2.72,3.57v10h-4.35v-17h4.25v1.43a4.18,4.18,0,0,1,3.7-1.73,5,5,0,0,1,4.59,2.65Z"/><path d="M286.19,574.69l-6.46,17h-4.08l-6.6-17h4.76l3.81,11,3.77-11Z"/><path d="M288.26,568.24H293v4.21h-4.69Zm.17,6.45h4.35v17h-4.35Z"/><path d="M296.76,574.69H301v1.43a4.91,4.91,0,0,1,3.91-1.73c3.43,0,6.22,1.63,6.22,6.66v10.64h-4.32v-10c0-2.65-.95-3.6-2.72-3.6-2,0-3,1.32-3,3.57v10h-4.35Z"/><path d="M324.4,574.69h4.32v16.66c0,5.68-3.2,7-7.48,7-3.16,0-5.17-.75-6.66-3.06l2.92-2.11a3.72,3.72,0,0,0,3.33,1.53c2.59,0,3.57-.75,3.57-3.37v-.54a5.4,5.4,0,0,1-3.64,1.19c-4.45,0-6.73-3.16-6.73-7.68V582c0-5,2.69-7.61,6.73-7.61a5.4,5.4,0,0,1,3.64,1.19Zm0,9.73v-2.14c0-2.72-.88-4.22-3-4.22s-3,1.5-3,4.22V584c0,2.45.68,4.29,3,4.29S324.4,586.66,324.4,584.42Z"/><path d="M136,609h4.35v7.78a4.55,4.55,0,0,1,3.81-1.63c3.43,0,6.22,1.63,6.22,6.66v10.64h-4.32v-10c0-2.65-1-3.6-2.72-3.6-2,0-3,1.32-3,3.57v10H136Z"/><path d="M159.35,622.29h3.37v-1c0-1.91-.58-2.52-3-2.52-1.66,0-2.48.24-3.19,1.36L153.44,618c1.25-2.07,3.16-2.82,6.66-2.82,4.38,0,6.87,1.29,6.87,6.15v11.15h-4.25V631c-.68,1.15-1.7,1.8-3.68,1.8-3.53,0-6-1.87-6-5.34S155.78,622.29,159.35,622.29Zm3.37,3.2h-2.86c-1.77,0-2.55.58-2.55,1.9s1,1.91,2.48,1.91c2,0,2.93-.85,2.93-3.16Z"/><path d="M179.75,620.29a3.67,3.67,0,0,0-3.33-1.36c-1.12,0-2.14.34-2.14,1.32s.92,1.4,2.72,1.67c4.18.65,6.29,2.24,6.29,5.61s-2.28,5.27-6.67,5.27c-3.46,0-5.57-.85-7-2.82l3.33-2.38c.68.92,1.53,1.46,3.63,1.46,1.5,0,2.42-.51,2.42-1.39,0-1.06-.75-1.4-2.89-1.74-3.54-.58-6.12-2.07-6.12-5.51,0-3.23,2.31-5.23,6.56-5.23,2.79,0,5.1.64,6.43,2.82Z"/><path d="M201.31,620.87l6.15,3.16v4.89l-11.05-6.22V619l11.05-6.23v4.9Z"/><path d="M218.1,622.16h-4.28V609h13.36v4.31h-8.7v4a4.78,4.78,0,0,1,3.46-1.22c3.61,0,6.12,2.75,6.12,8.36s-2.51,8.3-7.34,8.3c-3.94,0-7.24-2.21-7.61-6.36h4.69a2.69,2.69,0,0,0,2.78,2.35c1.7,0,2.72-1.29,2.72-4s-.81-4.32-2.72-4.32A2.64,2.64,0,0,0,218.1,622.16Z"/><path d="M253.09,629.91c-1.19,2-3.13,2.89-6.19,2.89-4.86,0-7.58-3.06-7.58-7.68V622.8c0-5,2.75-7.61,7.82-7.61,2.62,0,4.76.95,6,2.82l-3.27,2.28a3.18,3.18,0,0,0-2.78-1.43c-2.45,0-3.4,1.5-3.4,4.22v1.76c0,2.45.64,4.29,3.4,4.29a3,3,0,0,0,2.82-1.46Z"/><path d="M260.43,622.29h3.37v-1c0-1.91-.58-2.52-3-2.52-1.66,0-2.48.24-3.19,1.36L254.52,618c1.26-2.07,3.16-2.82,6.66-2.82,4.39,0,6.87,1.29,6.87,6.15v11.15H263.8V631c-.68,1.15-1.7,1.8-3.67,1.8-3.54,0-6-1.87-6-5.34S256.86,622.29,260.43,622.29Zm3.37,3.2h-2.86c-1.77,0-2.55.58-2.55,1.9s1,1.91,2.49,1.91c2,0,2.92-.85,2.92-3.16Z"/><path d="M271.52,609h4.35v17c0,1.83.54,2.68,2.38,2.68v3.74c-4.59,0-6.73-1.19-6.73-5.44Z"/><path d="M295.28,625c0,4.66-2.21,7.82-7.34,7.82-4.93,0-7.35-3.06-7.35-7.82v-2c0-5.1,2.69-7.75,7.35-7.75s7.34,2.65,7.34,7.75Zm-4.32-.14v-1.76c0-2.72-.88-4.22-3-4.22s-3,1.5-3,4.22v1.76c0,2.45.61,4.29,3,4.29S291,627.29,291,624.84Z"/><path d="M307.38,620.22a2.49,2.49,0,0,0-2.14-1.29c-1.63,0-2.72,1.19-2.72,3.57v10h-4.35v-17h4.25v1.43a4.22,4.22,0,0,1,3.71-1.73,5,5,0,0,1,4.59,2.65Z"/><path d="M312.45,609h4.69v4.21h-4.69Zm.17,6.45H317v17h-4.35Z"/><path d="M334.11,629.91c-1.19,2.07-3.16,2.89-6.22,2.89-5.1,0-7.55-3.3-7.55-7.68V622.8c0-5.13,2.58-7.61,7-7.61,4.8,0,7,2.79,7,7.95v1.94h-9.69c0,2.35.78,4,3.19,4a3.06,3.06,0,0,0,3-1.46ZM324.66,622H330c-.1-2.21-1-3.13-2.61-3.13S324.83,620.05,324.66,622Z"/><path d="M346.79,620.29a3.67,3.67,0,0,0-3.33-1.36c-1.12,0-2.14.34-2.14,1.32s.91,1.4,2.72,1.67c4.18.65,6.29,2.24,6.29,5.61s-2.28,5.27-6.67,5.27c-3.46,0-5.57-.85-7-2.82L340,627.6c.68.92,1.53,1.46,3.63,1.46,1.5,0,2.42-.51,2.42-1.39,0-1.06-.75-1.4-2.89-1.74-3.54-.58-6.12-2.07-6.12-5.51,0-3.23,2.31-5.23,6.56-5.23,2.79,0,5.1.64,6.43,2.82Z"/><path d="M281.54,886.24v23.45h-4l-9.15-14.51v14.51h-4.52V886.24h3.95L277,901V886.24Z"/><path d="M299.69,902.18c0,4.66-2.21,7.82-7.34,7.82-4.93,0-7.34-3.06-7.34-7.82v-2c0-5.1,2.68-7.75,7.34-7.75s7.34,2.65,7.34,7.75Zm-4.31-.14v-1.76c0-2.72-.89-4.22-3-4.22s-3,1.5-3,4.22V902c0,2.45.62,4.29,3,4.29S295.38,904.49,295.38,902Z"/><path d="M316.52,899.49h3.37v-1c0-1.91-.58-2.52-3-2.52-1.66,0-2.48.24-3.19,1.36l-3.06-2.14c1.26-2.07,3.16-2.82,6.66-2.82,4.39,0,6.87,1.29,6.87,6.15v11.15h-4.25V908.2c-.68,1.15-1.7,1.8-3.67,1.8-3.54,0-6-1.87-6-5.34S313,899.49,316.52,899.49Zm3.37,3.2H317c-1.76,0-2.55.58-2.55,1.9s1,1.91,2.49,1.91c2,0,2.92-.85,2.92-3.16Z"/><path d="M340.77,907.11c-1.19,2-3.13,2.89-6.19,2.89-4.86,0-7.58-3.06-7.58-7.68V900c0-5,2.75-7.61,7.82-7.61a6.7,6.7,0,0,1,5.95,2.82l-3.27,2.28a3.21,3.21,0,0,0-2.79-1.43c-2.44,0-3.4,1.5-3.4,4.22V902c0,2.45.65,4.29,3.4,4.29a3,3,0,0,0,2.83-1.46Z"/><path d="M343.11,886.24h4.69v4.21h-4.69Zm.17,6.46h4.35v17h-4.35Z"/><path d="M361.37,886.24h4.32v23.45h-4.32v-1a5.11,5.11,0,0,1-3.64,1.29c-4.45,0-6.73-3.16-6.73-7.68V900c0-5,2.69-7.61,6.73-7.61a5.38,5.38,0,0,1,3.64,1.19Zm0,15.8V899.9c0-2.48-1-3.84-3-3.84s-3,1.5-3,4.22V902c0,2.45.68,4.29,3,4.29S361.37,904.49,361.37,902Z"/><path d="M386.9,897.42a2.51,2.51,0,0,0-2.14-1.29c-1.63,0-2.72,1.19-2.72,3.57v10h-4.35v-17h4.25v1.42a4.22,4.22,0,0,1,3.71-1.73,5,5,0,0,1,4.58,2.65Z"/><path d="M404.55,907.11c-1.19,2.07-3.16,2.89-6.22,2.89-5.1,0-7.55-3.3-7.55-7.68V900c0-5.13,2.58-7.61,7-7.61,4.8,0,7,2.79,7,8v1.94H395.1c0,2.35.78,4.05,3.19,4.05a3,3,0,0,0,3-1.46Zm-9.45-7.92h5.34c-.11-2.21-1-3.13-2.62-3.13S395.27,897.25,395.1,899.19Z"/><path d="M417.4,890h-2.31c-1.6,0-1.94.72-1.94,2.42v.24h2.76v3.67h-2.76v13.32h-4.32V896.37h-2.17V892.7h2.17v-.92c0-4.39,1.7-5.54,5.82-5.54h7.1v17c0,1.83.55,2.68,2.38,2.68v3.74c-4.59,0-6.73-1.19-6.73-5.44Z"/><path d="M441.1,909.69h-4.25v-1.42c-.72,1.15-1.63,1.73-3.88,1.73-3.43,0-6.25-1.7-6.25-6.7V892.7h4.35v10c0,2.68.95,3.6,2.75,3.6,2,0,3-1.22,3-3.57v-10h4.32Z"/><path d="M454.49,909.69l-3.29-5.16-3.3,5.16h-4.79l5.57-8.7-5.13-8.29h4.79l2.86,4.86,2.85-4.86h4.8L453.71,901l5.61,8.7Z"/><path d="M466.19,911.26l-4.62,3.94V904.39h4.62Z"/><path d="M286.93,933.49h4.25v1.43a4.87,4.87,0,0,1,3.91-1.73c3.43,0,6.22,1.63,6.22,6.66v10.64H297v-10c0-2.65-.95-3.6-2.72-3.6-2,0-3,1.32-3,3.57v10h-4.35Z"/><path d="M318.89,943c0,4.66-2.21,7.82-7.35,7.82-4.93,0-7.34-3.06-7.34-7.82v-2c0-5.1,2.68-7.75,7.34-7.75s7.35,2.65,7.35,7.75Zm-4.32-.14v-1.76c0-2.72-.89-4.22-3-4.22s-3,1.5-3,4.22v1.76c0,2.45.61,4.29,3,4.29S314.57,945.29,314.57,942.84Z"/><path d="M334.39,934.55a4.78,4.78,0,0,1,3.67-1.36c4.08,0,6.7,2.65,6.7,7.75v2c0,4.66-2.21,7.82-6.7,7.82a4.7,4.7,0,0,1-3.67-1.33v1h-4.11V927h4.11Zm6.05,8.29v-1.76c0-2.72-.88-4.22-3-4.22s-3,1.5-3,4.22v1.76c0,2.45.75,4.29,3,4.29S340.44,945.29,340.44,942.84Z"/><path d="M347.62,927H352v17c0,1.83.54,2.68,2.38,2.68v3.74c-4.59,0-6.73-1.19-6.73-5.44Z"/><path d="M371.38,943c0,4.66-2.21,7.82-7.34,7.82-4.93,0-7.34-3.06-7.34-7.82v-2c0-5.1,2.68-7.75,7.34-7.75s7.34,2.65,7.34,7.75Zm-4.32-.14v-1.76c0-2.72-.88-4.22-3-4.22s-3,1.5-3,4.22v1.76c0,2.45.61,4.29,3,4.29S367.06,945.29,367.06,942.84Z"/><path d="M379.71,940.29h3.37v-1c0-1.91-.58-2.52-3-2.52-1.66,0-2.48.24-3.19,1.36L373.8,936c1.25-2.07,3.16-2.82,6.66-2.82,4.39,0,6.87,1.29,6.87,6.15v11.15h-4.25V949c-.68,1.15-1.7,1.8-3.67,1.8-3.54,0-6-1.87-6-5.34S376.14,940.29,379.71,940.29Zm3.37,3.2h-2.86c-1.77,0-2.55.58-2.55,1.9s1,1.91,2.48,1.91c2,0,2.93-.85,2.93-3.16Z"/><path d="M389.54,933.49h2.17v-3.73H396v3.73h3.33v3.68H396v7.1c0,1.7.34,2.42,1.94,2.42h1.39v3.8h-1.83c-4.12,0-5.82-1.15-5.82-5.54v-7.78h-2.17Z"/><path d="M402.39,927h4.69v4.21h-4.69Zm.17,6.45h4.35v17h-4.35Z"/><path d="M410.89,933.49h4.25v1.43a4.91,4.91,0,0,1,3.91-1.73c3.43,0,6.22,1.63,6.22,6.66v10.64H421v-10c0-2.65-.95-3.6-2.72-3.6-2,0-3,1.32-3,3.57v10h-4.35Z"/><path d="M438.53,933.49h4.32v16.66c0,5.68-3.2,7-7.48,7-3.16,0-5.17-.75-6.66-3.06l2.92-2.11a3.72,3.72,0,0,0,3.33,1.53c2.58,0,3.57-.75,3.57-3.37v-.54a5.4,5.4,0,0,1-3.64,1.19c-4.45,0-6.73-3.16-6.73-7.68V940.8c0-5,2.69-7.61,6.73-7.61a5.4,5.4,0,0,1,3.64,1.19Zm0,9.73v-2.14c0-2.72-.88-4.22-3-4.22s-3,1.5-3,4.22v1.76c0,2.45.68,4.29,3,4.29S438.53,945.46,438.53,943.22Z"/><circle class="cls-2" cx="640.13" cy="306.43" r="77.35"/><path class="cls-3" d="M686.18,325.73,651.09,265a13,13,0,0,0-11.23-6.51A13.18,13.18,0,0,0,628.54,265l-35,60.78a13,13,0,0,0,11.22,19.52H674.9a13,13,0,0,0,11.28-19.52Zm-42.84,7.53a4.86,4.86,0,0,1-3.48,1.49,5.11,5.11,0,0,1-3.58-1.49,5,5,0,0,1-1.44-3.53,5.16,5.16,0,0,1,1.44-3.57,5.06,5.06,0,0,1,3.58-1.49,4.82,4.82,0,0,1,3.48,1.49,5,5,0,0,1,1.49,3.57A4.85,4.85,0,0,1,643.34,333.26Zm1.79-18.76a5.18,5.18,0,0,1-2.72,4.34,5.28,5.28,0,0,1-7.87-4.34l-1.79-30.11a6.89,6.89,0,0,1,1.92-5.23,7,7,0,0,1,10.33,0,6.78,6.78,0,0,1,1.87,5.23Z"/><path class="cls-2" d="M644.83,329.73a5.09,5.09,0,0,1-5,5,5.11,5.11,0,0,1-3.58-1.49,5,5,0,0,1-1.44-3.53,5.16,5.16,0,0,1,1.44-3.57,5.06,5.06,0,0,1,3.58-1.49,4.82,4.82,0,0,1,3.48,1.49A5,5,0,0,1,644.83,329.73Z"/><path class="cls-2" d="M646.87,284.39l-1.74,30.11a5.18,5.18,0,0,1-2.72,4.34,5.28,5.28,0,0,1-7.87-4.34l-1.79-30.11a6.89,6.89,0,0,1,1.92-5.23,7,7,0,0,1,10.33,0A6.78,6.78,0,0,1,646.87,284.39Z"/><circle class="cls-2" cx="1362.62" cy="616.62" r="77.37"/><path class="cls-3" d="M1390,603.94a22,22,0,0,0-16.31.54q-.7-2.16-1.62-4.29c-7.9-18.26-25.29-28.37-38.77-22.54s-18,25.42-10.15,43.68c3.82,8.82,9.94,16,17.23,20.29a91.42,91.42,0,0,0,8.73,4,37.13,37.13,0,0,0,1.3,9.08c2.26,8.18,7.19,14.09,13.85,16.64a20.41,20.41,0,0,0,7.29,1.33,26.2,26.2,0,0,0,14.13-4.51c7.11-4.56,12.91-12,16.34-21C1409.09,628.56,1403.7,609.18,1390,603.94Zm-35.69,20.38a.36.36,0,0,0-.07-.1,34.14,34.14,0,0,0-4.14-4.92c-.77-.73-1.54-1.49-2.39-2.16l-1.36-1.14-1.55-1.34a36.57,36.57,0,0,1-5.42-6.37,32.41,32.41,0,0,1-3.65-7.51,25.86,25.86,0,0,1-1.37-8.22,15.91,15.91,0,0,1,1.94-8,39.22,39.22,0,0,0,6.1,13c.63.95,1.33,1.85,2,2.76s1.39,1.8,2.13,2.62a61.82,61.82,0,0,0,4.68,4.78l1.26,1.16,1.48,1.32a32.36,32.36,0,0,1,2.89,3.2,27,27,0,0,1,2.15,3.23C1358.83,616.84,1355.4,622,1354.29,624.32Zm28.29.25c-.22,1.12-.35,2.25-.5,3.37s-.26,2.27-.3,3.36a59.75,59.75,0,0,0,0,6.69l.09,1.71.14,2a32.48,32.48,0,0,1-.16,4.3,25.48,25.48,0,0,1-2.39,8.34,20.36,20.36,0,0,1-5.28,6.81,16.81,16.81,0,0,1-7.41,3.54,29.67,29.67,0,0,0,5.69-12.78,34.4,34.4,0,0,0,.46-6.41c0-1.07-.06-2.14-.2-3.22l-.18-1.76c-.07-.68-.07-1.37-.17-2a30.35,30.35,0,0,1,7.95-23.11,15.84,15.84,0,0,1,6.94-4.34A39.15,39.15,0,0,0,1382.58,624.57Z"/><path class="cls-1" d="M518.86,357.5H165.14A14.15,14.15,0,0,1,151,343.36V238.14A14.15,14.15,0,0,1,165.14,224H518.86A14.15,14.15,0,0,1,533,238.14V343.36A14.15,14.15,0,0,1,518.86,357.5ZM165.14,227A11.16,11.16,0,0,0,154,238.14V343.36a11.16,11.16,0,0,0,11.14,11.14H518.86A11.16,11.16,0,0,0,530,343.36V238.14A11.16,11.16,0,0,0,518.86,227Z"/><path d="M1447.24,895.26v2.14c0,7.17-3.34,10.37-8.64,10.37s-9-3.2-9-10.37v-3c0-7.59,3.71-10.71,9-10.71,4.93,0,7.89,2.78,8.6,7.58h-4.55c-.41-2.14-1.67-3.57-4.05-3.57-2.75,0-4.22,1.87-4.22,6.36v3.33c0,4.48,1.47,6.35,4.22,6.35s3.77-1.66,4.05-4.48h-4v-4Z"/><path d="M1450.57,884h4.35v17c0,1.83.54,2.68,2.38,2.68v3.74c-4.59,0-6.73-1.19-6.73-5.44Z"/><path d="M1474.64,907.46h-4.25V906c-.71,1.16-1.63,1.74-3.88,1.74-3.43,0-6.25-1.7-6.25-6.7V890.46h4.35v10c0,2.69,1,3.61,2.75,3.61,2,0,3-1.23,3-3.57v-10h4.32Z"/><path d="M1476.88,890.46h2.18v-3.74h4.32v3.74h3.33v3.67h-3.33v7.11c0,1.7.34,2.41,1.94,2.41h1.39v3.81h-1.84c-4.11,0-5.81-1.16-5.81-5.54v-7.79h-2.18Z"/><path d="M1502.55,904.88c-1.19,2.07-3.16,2.89-6.22,2.89-5.1,0-7.55-3.3-7.55-7.69v-2.31c0-5.13,2.59-7.61,7-7.61,4.79,0,7,2.78,7,8v1.94h-9.69c0,2.34.78,4,3.2,4a3,3,0,0,0,3-1.46ZM1493.1,897h5.34c-.1-2.21-1-3.13-2.62-3.13S1493.27,895,1493.1,897Z"/><path d="M1505.92,890.46h4.25v1.43a4.91,4.91,0,0,1,3.91-1.73c3.43,0,6.22,1.63,6.22,6.66v10.64H1516v-10c0-2.65-1-3.6-2.72-3.6-2,0-3,1.32-3,3.56v10h-4.35Z"/><path d="M1523.09,895.73h8.8v3.81h-8.8Z"/><path d="M1535.57,890.46v-.92c0-4.38,1.7-5.54,5.81-5.54h1.26v3.81h-.82c-1.6,0-1.94.71-1.94,2.41v.24h2.76v3.67h-2.76v13.33h-4.31V894.13h-2.18v-3.67Z"/><path d="M1554.1,895.19a2.52,2.52,0,0,0-2.15-1.29c-1.63,0-2.72,1.19-2.72,3.56v10h-4.35v-17h4.25v1.43a4.22,4.22,0,0,1,3.71-1.73,5,5,0,0,1,4.59,2.65Z"/><path d="M1571.74,904.88c-1.19,2.07-3.16,2.89-6.22,2.89-5.1,0-7.55-3.3-7.55-7.69v-2.31c0-5.13,2.59-7.61,7-7.61,4.79,0,7,2.78,7,8v1.94h-9.69c0,2.34.78,4,3.2,4a3,3,0,0,0,3-1.46Zm-9.45-7.92h5.34c-.1-2.21-1-3.13-2.62-3.13S1562.46,895,1562.29,897Z"/><path d="M1588.27,904.88c-1.19,2.07-3.17,2.89-6.23,2.89-5.1,0-7.54-3.3-7.54-7.69v-2.31c0-5.13,2.58-7.61,7-7.61,4.79,0,7,2.78,7,8v1.94h-9.69c0,2.34.79,4,3.2,4a3,3,0,0,0,3-1.46Zm-9.46-7.92h5.34c-.1-2.21-1-3.13-2.62-3.13S1579,895,1578.81,897Z"/><path d="M1603.53,894.44a8.35,8.35,0,0,1-2.24-5.41c0-3.23,2.72-5.33,6.42-5.33,4.25,0,6.36,2.24,6.36,4.65,0,2.62-2.41,4.53-4.86,6.33l4.49,5a10.35,10.35,0,0,0,.47-3.17h4.49a12.43,12.43,0,0,1-1.84,6.63l3.91,4.32h-5.47l-1.29-1.39a11.39,11.39,0,0,1-6.29,1.7c-5.24,0-8.09-3.2-8.09-6.53C1599.59,898.15,1601.42,896.11,1603.53,894.44Zm7.65,8.53-5.2-5.71a4.76,4.76,0,0,0-1.77,3.3c0,1.94,1.46,3.19,3.67,3.19A6.55,6.55,0,0,0,1611.18,903ZM1607,892c1.56-1.09,2.79-2.11,2.79-3.4a1.78,1.78,0,0,0-2-1.64,1.84,1.84,0,0,0-2,2A5.51,5.51,0,0,0,1607,892Z"/><path d="M1443.6,931.26l-6.46,17h-4.08l-6.6-17h4.76l3.81,11,3.77-11Z"/><path d="M1458,945.68c-1.19,2.07-3.16,2.89-6.22,2.89-5.1,0-7.54-3.3-7.54-7.69v-2.31c0-5.13,2.58-7.61,7-7.61,4.79,0,7,2.78,7,7.95v1.94h-9.69c0,2.35.78,4,3.2,4a3,3,0,0,0,3-1.46Zm-9.45-7.92h5.34c-.1-2.22-1-3.13-2.62-3.13S1448.73,935.82,1448.56,937.76Z"/><path d="M1471.14,931.26h4.32v16.66c0,5.68-3.2,7-7.48,7-3.17,0-5.17-.74-6.67-3.06l2.93-2.1a3.71,3.71,0,0,0,3.33,1.53c2.58,0,3.57-.75,3.57-3.37v-.54a5.4,5.4,0,0,1-3.64,1.19c-4.45,0-6.73-3.17-6.73-7.69v-2.31c0-5,2.69-7.61,6.73-7.61a5.35,5.35,0,0,1,3.64,1.19Zm0,9.72v-2.14c0-2.72-.89-4.21-3-4.21s-3,1.49-3,4.21v1.77c0,2.45.68,4.28,3,4.28S1471.14,943.23,1471.14,941Z"/><path d="M1484.4,938.06h3.36v-1c0-1.91-.57-2.52-3-2.52-1.67,0-2.48.24-3.2,1.36l-3.06-2.14c1.26-2.08,3.16-2.82,6.67-2.82,4.38,0,6.86,1.29,6.86,6.15v11.15h-4.25v-1.5c-.68,1.16-1.7,1.81-3.67,1.81-3.53,0-6-1.87-6-5.34S1480.83,938.06,1484.4,938.06Zm3.36,3.2h-2.85c-1.77,0-2.55.57-2.55,1.9s1,1.9,2.48,1.9c2,0,2.92-.85,2.92-3.16Z"/><path d="M1495.48,931.26h4.25v1.43a4.91,4.91,0,0,1,3.91-1.73c3.44,0,6.22,1.63,6.22,6.66v10.64h-4.31v-10c0-2.65-1-3.6-2.72-3.6-2,0-3,1.32-3,3.57v10h-4.35Z"/><path d="M1522.79,931.26v-.92c0-4.38,1.69-5.54,5.81-5.54h1.26v3.81H1529c-1.6,0-1.94.71-1.94,2.41v.24h2.76v3.67h-2.76v13.33h-4.31V934.93h-2.18v-3.67Z"/><path d="M1541.31,936a2.49,2.49,0,0,0-2.14-1.29c-1.63,0-2.72,1.19-2.72,3.57v10h-4.35v-17h4.25v1.43a4.22,4.22,0,0,1,3.71-1.73,5,5,0,0,1,4.58,2.65Z"/><path d="M1546.38,924.8h4.69V929h-4.69Zm.17,6.46h4.35v17h-4.35Z"/><path d="M1568,945.68c-1.19,2.07-3.16,2.89-6.23,2.89-5.09,0-7.54-3.3-7.54-7.69v-2.31c0-5.13,2.58-7.61,7-7.61,4.79,0,7,2.78,7,7.95v1.94h-9.68c0,2.35.78,4,3.19,4a3,3,0,0,0,3-1.46Zm-9.45-7.92h5.33c-.1-2.22-1-3.13-2.62-3.13S1558.76,935.82,1558.59,937.76Z"/><path d="M1571.4,931.26h4.25v1.43a4.91,4.91,0,0,1,3.91-1.73c3.44,0,6.22,1.63,6.22,6.66v10.64h-4.31v-10c0-2.65-1-3.6-2.72-3.6-2,0-3,1.32-3,3.57v10h-4.36Z"/><path d="M1599,924.8h4.32v23.46H1599v-1a5.06,5.06,0,0,1-3.63,1.3c-4.46,0-6.73-3.17-6.73-7.69v-2.31c0-5,2.68-7.61,6.73-7.61a5.35,5.35,0,0,1,3.63,1.19Zm0,15.81v-2.14c0-2.48-1-3.84-3-3.84s-3,1.49-3,4.21v1.77c0,2.45.68,4.28,3,4.28S1599,943.06,1599,940.61Z"/><path d="M1606.87,924.8h4.35v17c0,1.84.54,2.69,2.38,2.69v3.74c-4.59,0-6.73-1.19-6.73-5.44Z"/><path d="M1619.55,931.26l3.77,10.88,3.4-10.88h4.39L1625.16,949c-1.53,4.56-3,5.68-7.79,5.68v-3.88c2.35,0,3.26-.37,4-2.34L1615,931.26Z"/><path class="cls-1" d="M1682.86,984H1375.14A14.15,14.15,0,0,1,1361,969.86V859.14A14.15,14.15,0,0,1,1375.14,845h307.72A14.15,14.15,0,0,1,1697,859.14V969.86A14.15,14.15,0,0,1,1682.86,984ZM1375.14,848A11.16,11.16,0,0,0,1364,859.14V969.86A11.16,11.16,0,0,0,1375.14,981h307.72A11.16,11.16,0,0,0,1694,969.86V859.14A11.16,11.16,0,0,0,1682.86,848Z"/><path class="cls-1" d="M1846.86,684H1478.14A14.15,14.15,0,0,1,1464,669.86V543.14A14.15,14.15,0,0,1,1478.14,529h368.72A14.15,14.15,0,0,1,1861,543.14V669.86A14.15,14.15,0,0,1,1846.86,684ZM1478.14,532A11.16,11.16,0,0,0,1467,543.14V669.86A11.16,11.16,0,0,0,1478.14,681h368.72A11.16,11.16,0,0,0,1858,669.86V543.14A11.16,11.16,0,0,0,1846.86,532Z"/><path d="M1493.25,214.39v4.05h-6.46v19.41H1482V218.44h-6.46v-4.05Z"/><path d="M1499.3,227.65h3.37v-1c0-1.9-.58-2.51-3-2.51-1.67,0-2.48.24-3.2,1.36l-3.06-2.14c1.26-2.08,3.17-2.82,6.67-2.82,4.38,0,6.87,1.29,6.87,6.15v11.15h-4.25v-1.5c-.68,1.16-1.7,1.81-3.68,1.81-3.53,0-6-1.87-6-5.34S1495.73,227.65,1499.3,227.65Zm3.37,3.2h-2.86c-1.77,0-2.55.57-2.55,1.9s1,1.9,2.48,1.9c2,0,2.93-.85,2.93-3.16Z"/><path d="M1519.7,225.65a3.67,3.67,0,0,0-3.33-1.36c-1.12,0-2.14.33-2.14,1.32s.91,1.39,2.72,1.67c4.18.64,6.28,2.24,6.28,5.61s-2.27,5.27-6.66,5.27c-3.47,0-5.57-.85-7-2.83l3.34-2.38c.68.92,1.53,1.47,3.63,1.47,1.5,0,2.42-.51,2.42-1.4,0-1.05-.75-1.39-2.89-1.73-3.54-.58-6.12-2.08-6.12-5.51,0-3.23,2.31-5.23,6.56-5.23,2.79,0,5.1.64,6.42,2.82Z"/><path d="M1524.9,220.85h2.18v-3.74h4.31v3.74h3.34v3.67h-3.34v7.11c0,1.7.34,2.41,1.94,2.41h1.4v3.81h-1.84c-4.11,0-5.81-1.16-5.81-5.54v-7.79h-2.18Z"/><path d="M1550.57,235.27c-1.19,2.07-3.16,2.89-6.22,2.89-5.1,0-7.55-3.3-7.55-7.69v-2.31c0-5.13,2.58-7.61,7-7.61,4.8,0,7,2.78,7,7.95v1.94h-9.69c0,2.34.78,4,3.19,4a3,3,0,0,0,3-1.46Zm-9.45-7.93h5.34c-.11-2.21-1-3.12-2.62-3.12S1541.29,225.41,1541.12,227.34Z"/><path d="M1563.25,225.65a3.66,3.66,0,0,0-3.33-1.36c-1.12,0-2.14.33-2.14,1.32s.92,1.39,2.72,1.67c4.18.64,6.29,2.24,6.29,5.61s-2.28,5.27-6.67,5.27c-3.46,0-5.57-.85-7-2.83l3.33-2.38c.68.92,1.53,1.47,3.64,1.47,1.49,0,2.41-.51,2.41-1.4,0-1.05-.75-1.39-2.89-1.73-3.54-.58-6.12-2.08-6.12-5.51,0-3.23,2.31-5.23,6.56-5.23,2.79,0,5.1.64,6.43,2.82Z"/><path d="M1588,220.85h4.32v16.66c0,5.68-3.2,7-7.48,7-3.16,0-5.17-.74-6.66-3.06l2.92-2.1a3.72,3.72,0,0,0,3.33,1.53c2.58,0,3.57-.75,3.57-3.37V237a5.4,5.4,0,0,1-3.64,1.19c-4.45,0-6.73-3.17-6.73-7.69v-2.31c0-5,2.69-7.61,6.73-7.61a5.35,5.35,0,0,1,3.64,1.19Zm0,9.72v-2.14c0-2.72-.88-4.21-3-4.21s-3,1.49-3,4.21v1.77c0,2.45.68,4.28,3,4.28S1588,232.82,1588,230.57Z"/><path d="M1605,225.58a2.49,2.49,0,0,0-2.14-1.29c-1.63,0-2.72,1.19-2.72,3.56v10h-4.35v-17H1600v1.43a4.22,4.22,0,0,1,3.71-1.73,5,5,0,0,1,4.59,2.65Z"/><path d="M1622.65,235.27c-1.19,2.07-3.16,2.89-6.22,2.89-5.1,0-7.55-3.3-7.55-7.69v-2.31c0-5.13,2.58-7.61,7-7.61,4.8,0,7,2.78,7,7.95v1.94h-9.69c0,2.34.78,4,3.19,4a3,3,0,0,0,3-1.46Zm-9.45-7.93h5.34c-.11-2.21-1-3.12-2.62-3.12S1613.37,225.41,1613.2,227.34Z"/><path d="M1631.46,227.65h3.36v-1c0-1.9-.58-2.51-3-2.51-1.67,0-2.49.24-3.2,1.36l-3.06-2.14c1.26-2.08,3.16-2.82,6.67-2.82,4.38,0,6.86,1.29,6.86,6.15v11.15h-4.25v-1.5c-.68,1.16-1.7,1.81-3.67,1.81-3.53,0-6-1.87-6-5.34S1627.89,227.65,1631.46,227.65Zm3.36,3.2H1632c-1.77,0-2.55.57-2.55,1.9s1,1.9,2.48,1.9c2,0,2.92-.85,2.92-3.16Z"/><path d="M1641.28,220.85h2.18v-3.74h4.32v3.74h3.33v3.67h-3.33v7.11c0,1.7.34,2.41,1.93,2.41h1.4v3.81h-1.84c-4.11,0-5.81-1.16-5.81-5.54v-7.79h-2.18Z"/><path d="M1668.89,237.85h-3.53l-4.7-17h4.49l2.41,9.72,3.44-9.72h3.19l3.68,9.76,2.41-9.76h4.52l-4.72,17h-3.51l-3.84-10.64Z"/><path d="M1687,214.39h4.69v4.22H1687Zm.17,6.46h4.35v17h-4.35Z"/><path d="M1694.22,220.85h2.18v-3.74h4.31v3.74h3.34v3.67h-3.34v7.11c0,1.7.34,2.41,1.94,2.41h1.4v3.81h-1.84c-4.11,0-5.81-1.16-5.81-5.54v-7.79h-2.18Z"/><path d="M1706.73,214.39h4.35v7.79a4.55,4.55,0,0,1,3.81-1.63c3.44,0,6.22,1.63,6.22,6.66v10.64h-4.31v-10c0-2.65-1-3.6-2.72-3.6-2,0-3,1.32-3,3.56v10h-4.35Z"/><path d="M1535.7,255.19h4.35V263a4.52,4.52,0,0,1,3.81-1.63c3.43,0,6.22,1.63,6.22,6.66v10.64h-4.32v-10c0-2.65-1-3.61-2.72-3.61-2,0-3,1.33-3,3.57v10h-4.35Z"/><path d="M1567.65,271.14c0,4.65-2.2,7.82-7.34,7.82-4.93,0-7.34-3.06-7.34-7.82v-2c0-5.1,2.68-7.75,7.34-7.75s7.34,2.65,7.34,7.75Zm-4.31-.14v-1.77c0-2.72-.89-4.21-3-4.21s-3,1.49-3,4.21V271c0,2.45.61,4.28,3,4.28S1563.34,273.45,1563.34,271Z"/><path d="M1569.29,261.65h2.17v-3.74h4.32v3.74h3.33v3.67h-3.33v7.11c0,1.7.34,2.41,1.94,2.41h1.39v3.81h-1.83c-4.12,0-5.82-1.16-5.82-5.54v-7.79h-2.17Z"/><path d="M1581.66,282.59,1593.09,251H1597l-11.43,31.55Z"/><path d="M1611.45,276.07c-1.19,2-3.13,2.89-6.19,2.89-4.86,0-7.58-3.06-7.58-7.69V269c0-5,2.75-7.61,7.82-7.61a6.7,6.7,0,0,1,6,2.82l-3.27,2.27a3.22,3.22,0,0,0-2.79-1.42c-2.44,0-3.39,1.49-3.39,4.21V271c0,2.45.64,4.28,3.39,4.28a3,3,0,0,0,2.83-1.46Z"/><path d="M1627.29,271.14c0,4.65-2.21,7.82-7.34,7.82-4.93,0-7.35-3.06-7.35-7.82v-2c0-5.1,2.69-7.75,7.35-7.75s7.34,2.65,7.34,7.75ZM1623,271v-1.77c0-2.72-.88-4.21-3-4.21s-3,1.49-3,4.21V271c0,2.45.61,4.28,3,4.28S1623,273.45,1623,271Z"/><path d="M1630.18,255.19h4.35v17c0,1.84.55,2.69,2.38,2.69v3.74c-4.59,0-6.73-1.19-6.73-5.44Z"/><path d="M1649.63,255.19H1654v23.46h-4.32v-1A5.09,5.09,0,0,1,1646,279c-4.45,0-6.73-3.17-6.73-7.69V269c0-5,2.69-7.61,6.73-7.61a5.38,5.38,0,0,1,3.64,1.19Zm0,15.81v-2.14c0-2.48-1-3.84-3-3.84s-3,1.49-3,4.21V271c0,2.45.68,4.28,3,4.28S1649.63,273.45,1649.63,271Z"/><path d="M1530.83,319.45h-3.53l-4.69-17h4.48l2.42,9.72,3.43-9.72h3.2l3.67,9.76,2.41-9.76h4.52l-4.72,17h-3.5l-3.84-10.64Z"/><path d="M1554,309.25h3.36v-1c0-1.9-.57-2.51-3-2.51-1.67,0-2.48.24-3.2,1.36l-3.06-2.14c1.26-2.08,3.16-2.82,6.67-2.82,4.38,0,6.86,1.29,6.86,6.15v11.15h-4.25V318c-.68,1.16-1.7,1.81-3.67,1.81-3.53,0-6-1.87-6-5.34S1550.42,309.25,1554,309.25Zm3.36,3.2h-2.85c-1.77,0-2.55.57-2.55,1.9s1,1.9,2.48,1.9c2,0,2.92-.85,2.92-3.16Z"/><path d="M1563.81,302.45H1566v-3.74h4.32v3.74h3.33v3.67h-3.33v7.11c0,1.7.34,2.41,1.94,2.41h1.39v3.81h-1.84c-4.11,0-5.81-1.16-5.81-5.54v-7.79h-2.18Z"/><path d="M1589.48,316.87c-1.19,2.07-3.16,2.89-6.22,2.89-5.1,0-7.55-3.3-7.55-7.69v-2.31c0-5.13,2.59-7.61,7-7.61,4.79,0,7,2.78,7,8V312H1580c0,2.34.78,4,3.2,4a3,3,0,0,0,3-1.46Zm-9.45-7.93h5.34c-.1-2.21-1-3.12-2.62-3.12S1580.2,307,1580,308.94Z"/><path d="M1602.06,307.18a2.49,2.49,0,0,0-2.14-1.29c-1.63,0-2.72,1.18-2.72,3.56v10h-4.35v-17h4.25v1.43a4.22,4.22,0,0,1,3.71-1.73,5,5,0,0,1,4.59,2.65Z"/><path d="M1606.65,323.39l11.43-31.55H1622l-11.43,31.55Z"/><path d="M1637.22,319.45h-4.32v-10c0-2.72-1.05-3.6-2.58-3.6s-2.69,1.15-2.69,3.56v10h-4.35v-17h4.25v1.43a4.5,4.5,0,0,1,3.77-1.73,5.56,5.56,0,0,1,4.76,2.27,6.22,6.22,0,0,1,4.9-2.27c3.7,0,5.88,2.24,5.88,6.66v10.64h-4.35v-10c0-2.55-.89-3.6-2.62-3.6-1.56,0-2.65,1.15-2.65,3.56Z"/><path d="M1650.65,296h4.69v4.22h-4.69Zm.17,6.46h4.35v17h-4.35Z"/><path d="M1659.15,296h4.35v17c0,1.84.54,2.69,2.38,2.69v3.74c-4.59,0-6.73-1.19-6.73-5.44Z"/><path d="M1683.12,302.45l-5.88,7.11,6.86,9.89H1679l-4.65-6.39-1.16,1.43v5h-4.35V296h4.35v12.65l4.76-6.19Z"/><path class="cls-1" d="M1793.86,343H1403.14A14.15,14.15,0,0,1,1389,328.86V206.14A14.15,14.15,0,0,1,1403.14,192h390.72A14.15,14.15,0,0,1,1808,206.14V328.86A14.15,14.15,0,0,1,1793.86,343ZM1403.14,195A11.16,11.16,0,0,0,1392,206.14V328.86A11.16,11.16,0,0,0,1403.14,340h390.72A11.16,11.16,0,0,0,1805,328.86V206.14A11.16,11.16,0,0,0,1793.86,195Z"/><path class="cls-1" d="M386.86,675H82.14A14.15,14.15,0,0,1,68,660.86V539.14A14.15,14.15,0,0,1,82.14,525H386.86A14.15,14.15,0,0,1,401,539.14V660.86A14.15,14.15,0,0,1,386.86,675ZM82.14,528A11.16,11.16,0,0,0,71,539.14V660.86A11.16,11.16,0,0,0,82.14,672H386.86A11.16,11.16,0,0,0,398,660.86V539.14A11.16,11.16,0,0,0,386.86,528Z"/><path class="cls-1" d="M518.86,987H211.14A14.15,14.15,0,0,1,197,972.86V864.14A14.15,14.15,0,0,1,211.14,850H518.86A14.15,14.15,0,0,1,533,864.14V972.86A14.15,14.15,0,0,1,518.86,987ZM211.14,853A11.16,11.16,0,0,0,200,864.14V972.86A11.16,11.16,0,0,0,211.14,984H518.86A11.16,11.16,0,0,0,530,972.86V864.14A11.16,11.16,0,0,0,518.86,853Z"/><circle class="cls-2" cx="1263.47" cy="288.4" r="77.35"/><path class="cls-3" d="M1236,289l28.16-60.58,26.24,60.42a47.44,47.44,0,0,1,3.18,10c4.66,24.2-11.42,40.35-30.85,40.35h0C1241.05,339.15,1223.7,319.93,1236,289Z"/><path class="cls-1" d="M885.34,524.54,842.44,702c-7-4.94-10.61-9.7-9.66-13.63l42.9-177.48a4.08,4.08,0,0,0-.1.64,4.45,4.45,0,0,0-.05.74,5.54,5.54,0,0,0,.06.67c0,.3.1.61.17.91s.1.31.14.47.23.57.36.85a6,6,0,0,0,.38.76.73.73,0,0,0,.05.09c.12.23.27.46.41.68a9.29,9.29,0,0,0,.55.78,6.17,6.17,0,0,0,.44.57c.13.17.27.35.42.52.29.34.59.68.92,1l.71.71c.39.37.8.74,1.23,1.12.65.58,1.38,1.17,2.13,1.75C884.09,523.64,884.7,524.08,885.34,524.54Z"/><path class="cls-4" d="M914.79,541.7,872.46,716.81c-11.08-4.12-20.45-8.6-27.31-13-.95-.61-1.86-1.21-2.71-1.83l42.9-177.47c7,4.93,17.35,10.06,29.91,14.74C915.14,540.09,915,540.88,914.79,541.7Z"/><path class="cls-1" d="M1028,547.73,985.13,725.21c-1.06,4.41-7.72,7.13-18.06,8.1-15.05,1.4-37.93-.85-62.86-6.88a279.84,279.84,0,0,1-31.75-9.62L914.79,541.7c.19-.82.35-1.61.46-2.42A277.81,277.81,0,0,0,947.11,549c24.57,5.93,47.14,8.21,62.2,6.93,2.22-.19,4.28-.46,6.16-.8C1022.66,553.76,1027.17,551.31,1028,547.73Z"/><path class="cls-1" d="M1079.41,651.58c-9.55,39.47-42.94,65.26-74.61,57.6a47.7,47.7,0,0,1-14.33-6l8.22-34c0,.54,0,1.08.08,1.59.94,12.08,12.33,20.51,24.35,18.9a43.84,43.84,0,0,0,11.29-3.19c22.26-9.58,29.43-46.09,29.43-46.09s10.3-35.74-11.74-47.72-36.6,7-36.6,7l8.34-34.51a48.22,48.22,0,0,1,15.51,1.15C1071,573.91,1089,612.11,1079.41,651.58Z"/><path class="cls-1" d="M1028,547.73c-.87,3.58-5.38,6-12.57,7.35-1.88.34-3.94.61-6.16.8-9.95-11.79-28.36-24.37-51-33.8-36.94-15.33-71.75-16.69-79.75-3.5-.15-.17-.29-.35-.42-.52a6.17,6.17,0,0,1-.44-.57,9.29,9.29,0,0,1-.55-.78c-.14-.22-.29-.45-.41-.68a.73.73,0,0,1-.05-.09,6,6,0,0,1-.38-.76c-.13-.28-.25-.56-.36-.85s-.09-.31-.14-.47-.13-.61-.17-.91a5.54,5.54,0,0,1-.06-.67,4.45,4.45,0,0,1,.05-.74,4.08,4.08,0,0,1,.1-.64,6.44,6.44,0,0,1,2.49-3.56c9.2-7.25,41.57-6.57,78.44,2.34s66,23.09,70.84,33.75A6.47,6.47,0,0,1,1028,547.73Z"/><path class="cls-5" d="M879.43,519.6c-.33-.34-.63-.68-.92-1a11.56,11.56,0,0,1,.89-1.26C879.47,518.78,879.43,519.6,879.43,519.6Z"/><path class="cls-2" d="M1009.31,555.88c-15.06,1.28-37.63-1-62.2-6.93a277.81,277.81,0,0,1-31.86-9.67c-12.56-4.68-22.93-9.81-29.91-14.74-.64-.46-1.25-.9-1.84-1.36-.75-.58-1.48-1.17-2.13-1.75-.43-.38-.84-.75-1.23-1.12l-.71-.71s0-.82,0-2.28h0a57.18,57.18,0,0,0-10.13-28.74s-10.5-21.14,12-23c0,0,7.37,1.4,8.15,11.22.49,6.14,7.2,18.44,12.62,24.34a6.76,6.76,0,0,0,11.52-6.32c-1.22-4.51-4.56-15-5.92-20.18-5.13-19.56,9.68-26,9.68-26s36.81-7.72,29.7,35.44c-2.74,16.62,4.26,29.54,13.91,39.13C982.38,532.5,999.75,544.55,1009.31,555.88Z"/><path class="cls-2" d="M958.55,479.85s36.29-31.29,13.38-55.34c-4.64-4.87-15.7-9.72-18.1-3.5a22,22,0,0,0,2.69,20.33C960.38,446.89,964.28,458.26,958.55,479.85Z"/><path class="cls-2" d="M888.54,459.3s-3.12-23.17-19-20.21c-3.23.6-8.16,3.83-6.25,6.47a10.74,10.74,0,0,0,9,4.31C875.56,449.77,881.24,451.2,888.54,459.3Z"/><path class="cls-6" d="M930.68,506.3c-5.91-10.67-11.87-24.17-11.79-35.11.05-8.21,9.28-13.19,16-8.5,4.33,3,7.53,8.57,4.86,18.79a69,69,0,0,0-1.9,22.63A3.84,3.84,0,0,1,930.68,506.3Z"/><path class="cls-6" d="M979.72,547.51s-9-14.48-37.76-17.27-41.25-15.72-50.25-32.06c0,0-9.27,10.83,10.3,26.88S970,552.48,979.72,547.51Z"/><path class="cls-3" d="M900.07,666.75c.11.83-.43,1.36-.72,1.93-.67,1.67-1.35,3.34-2.09,4.91-.17.42-.34.84-1,.81-6.63.37-12.9,2.25-19.22,4.3-.2.14-.46.09-.67.23-1,.34-2.21.75-3.27,1.18-.09,0-.19.06-.26-.05s.13-.24.25-.4c.9-.46,1.86-.82,2.76-1.28,7.41-3.63,14.83-7.27,22.32-10.81A12.47,12.47,0,0,1,900.07,666.75Z"/><path class="cls-3" d="M957.87,592.28c-12.93,6.19-25.77,12.41-38.71,18.69-6.42,3.11-12.93,6.2-19.34,9.22a4.51,4.51,0,0,1-1,.44c2-4.38,3.86-8.61,5.81-12.74s3.66-8,5.48-12c.22-.68.52-.89,1.31-.75,5.46,1,10.89,2.23,16.42,2.91,7.46,1,14.61-.77,21.57-3.41,2.41-.9,4.88-1.6,7.36-2.39.3-.13.49-.18.78-.31.09,0,.1-.07.19-.05S957.92,592,957.87,592.28Z"/><path class="cls-3" d="M964.54,613.65c-3.12-5.89-8.47-8.87-14.49-10.8-1.71-.5-3.46-1.73-5.43-.75q-14.5,7-29,13.95c-12.92,6.2-25.88,12.49-38.81,18.77-.11.07-.31.11-.25.31a.46.46,0,0,0,.45.09c.84-.21,1.69-.42,2.55-.7,3.19-.74,6.26-1.87,9.64-2.14,2.82-.19,3.72,1.23,2.55,3.72-4.89,10.66-9.67,21.35-14.54,32-1.07,2.31-1.08,2.41,1.53,2.8,1.41.17,2.95,1.09,4.42.39,8.67-4.14,17.26-8.27,25.87-12.49.19-.05.3-.12.22-.23s-.14-.2-.23-.22-.09.08-.09.08a25.41,25.41,0,0,1-2.94.33c-1.34,0-1.83-.78-1.22-2.11l3.64-7.94c.25-.39.48-.62,1-.52l8.5,1.59c.43.08.67.21.68.67q1.06,13.65,2.15,27.35a1.19,1.19,0,0,0,1.1,1.28l17.92,3.09,2.6.49c.42.08.85.14,1.3.23l0-.78a2.08,2.08,0,0,1-.3.27c-1-11.14-2.14-22-3.23-33-.06-.62.31-.65.77-.74,10.81-2.56,18.61-8.72,23-18.93C966.11,624.45,967.29,619.1,964.54,613.65ZM943.1,626c-2.67,7.59-8.31,10.83-16.21,9.35l-10.41-2c-.69-.13-.84-.33-.53-1,2.75-6,5.49-12.07,8.23-18,.2-.6.48-.62,1-.53,2.15.49,4.32.89,6.5,1.3a58.74,58.74,0,0,1,7.25,1.55C943.31,618.2,944.65,621.6,943.1,626Z"/></g></svg>