<svg xmlns="http://www.w3.org/2000/svg" viewBox="0 0 1920 800"><defs><style>.cls-1{fill:#414042;}.cls-2{fill:#edcaa4;}.cls-3{fill:#00bbc1;}.cls-4{fill:#f9e6d4;}</style></defs><g id="Layer_1" data-name="Layer 1"><path class="cls-1" d="M248.61,677.9h-2.88v-27h2.88Z"/><path class="cls-1" d="M270.65,677.9h-2.73V666.39q0-5-4.6-5a4.48,4.48,0,0,0-3.4,1.29,5.16,5.16,0,0,0-1.24,3.69V677.9H256V659.21h2.73v2a6.68,6.68,0,0,1,5.25-2.28,6.54,6.54,0,0,1,4.79,1.75,7,7,0,0,1,1.93,5.2Z"/><path class="cls-1" d="M284.64,661.41h-4V677.9h-2.74V661.41h-2.39v-2.09h2.39v-3.55a5.21,5.21,0,0,1,1.18-3.55,4.48,4.48,0,0,1,3.57-1.49h2v2.36h-1.48c-1.68,0-2.51.92-2.51,2.75v3.48h4Z"/><path class="cls-1" d="M303.79,677.9h-2.74v-2.09a7.29,7.29,0,0,1-10.07.57,7,7,0,0,1-1.9-5.24V659.21h2.74v11.51q0,5,4.56,5a4.56,4.56,0,0,0,3.42-1.29,5.06,5.06,0,0,0,1.25-3.69V659.21h2.74Z"/><path class="cls-1" d="M324.12,672.43a4.89,4.89,0,0,1-2.07,4.18,9.09,9.09,0,0,1-5.53,1.52,10.64,10.64,0,0,1-7.68-2.7l1.83-1.82a7.63,7.63,0,0,0,5.81,2.17c3.32,0,5-1.11,5-3.31,0-1.65-1-2.56-3.12-2.74l-3.07-.26q-5.59-.5-5.59-5a4.78,4.78,0,0,1,1.92-4,7.87,7.87,0,0,1,5-1.48,10.34,10.34,0,0,1,6.72,2l-1.78,1.79a8,8,0,0,0-5-1.48c-2.79,0-4.18,1-4.18,3.08q0,2.43,3.27,2.73l3,.27Q324.11,667.88,324.12,672.43Z"/><path class="cls-1" d="M343.77,669.28H331.15a7.12,7.12,0,0,0,1.42,4.74,5.07,5.07,0,0,0,4.09,1.68,6.8,6.8,0,0,0,4.9-2.09l1.86,1.63a10.37,10.37,0,0,1-2.92,2.17,9.7,9.7,0,0,1-3.92.72,7.53,7.53,0,0,1-5.92-2.32q-2.25-2.43-2.25-7.25a10.87,10.87,0,0,1,2.06-7,6.82,6.82,0,0,1,5.62-2.53,6.94,6.94,0,0,1,5.64,2.43,10,10,0,0,1,2,6.61Zm-2.74-2a10.48,10.48,0,0,0-.57-3.12,4.8,4.8,0,0,0-8.74,0,10.48,10.48,0,0,0-.57,3.12Z"/><path class="cls-1" d="M363.49,677.9h-2.74v-2.24a6.29,6.29,0,0,1-5.3,2.47,6.14,6.14,0,0,1-4.55-1.63q-2.26-2.28-2.27-7.94t2.28-7.95a6.2,6.2,0,0,1,4.56-1.63,6.31,6.31,0,0,1,5.28,2.39V650.85h2.74Zm-2.74-9.34a11.59,11.59,0,0,0-.8-4.94,4.5,4.5,0,0,0-7.75,0,15.12,15.12,0,0,0,0,9.88,4.51,4.51,0,0,0,7.75,0A11.62,11.62,0,0,0,360.75,668.56Z"/><path class="cls-1" d="M403.42,659.21l-5.88,18.69H395l-4.9-14.51-4.87,14.51h-2.54l-5.93-18.69h3l4.3,15,4.9-15h2.35l4.95,15,4.25-15Z"/><path class="cls-1" d="M410.19,653.89h-3.08v-3.08h3.08Zm-.19,24h-2.74V659.21H410Z"/><path class="cls-1" d="M424.1,677.9h-1.94a4.39,4.39,0,0,1-3.57-1.48,5,5,0,0,1-1.22-3.53V661.41H415v-2.09h2.36v-5.85h2.74v5.85h4v2.09h-4v11.4c0,1.83.85,2.74,2.54,2.74h1.45Z"/><path class="cls-1" d="M444.2,677.9h-2.74V666.35q0-4.94-4.56-4.94a4.59,4.59,0,0,0-3.42,1.28,5,5,0,0,0-1.25,3.66V677.9h-2.74v-27h2.74v10.41a6.66,6.66,0,0,1,5.24-2.28,6.51,6.51,0,0,1,4.94,1.86,7,7,0,0,1,1.79,5.06Z"/><path class="cls-1" d="M228.46,714.23h-2.74V702.71q0-5-4.6-5a4.48,4.48,0,0,0-3.4,1.29,5.13,5.13,0,0,0-1.23,3.68v11.52h-2.74v-18.7h2.74v2.05a6.66,6.66,0,0,1,5.24-2.28,6.58,6.58,0,0,1,4.79,1.75,7,7,0,0,1,1.94,5.21Z"/><path class="cls-1" d="M248.48,714.23h-2.73v-1.79a7.33,7.33,0,0,1-5.4,2q-3.61,0-5.28-1.71a5.22,5.22,0,0,1-1.41-3.8,4.93,4.93,0,0,1,1.69-4,7.15,7.15,0,0,1,4.77-1.44h5.63v-1.79q0-4.1-4.79-4.1a5.39,5.39,0,0,0-4.71,2.13l-1.87-1.71a6.79,6.79,0,0,1,2.82-2.21,10.49,10.49,0,0,1,3.8-.57q7.49,0,7.48,6.24Zm-2.73-6.61v-2H240.5q-4.19,0-4.18,3.31t4.3,3.19a5.9,5.9,0,0,0,4.18-1.25A4.42,4.42,0,0,0,245.75,707.62Z"/><path class="cls-1" d="M262.31,714.23h-1.93a4.46,4.46,0,0,1-3.58-1.48,5.05,5.05,0,0,1-1.21-3.54V697.74h-2.36v-2.09h2.36v-5.86h2.73v5.86h4v2.09h-4v11.4q0,2.73,2.55,2.73h1.44Z"/><path class="cls-1" d="M282.26,714.23h-2.73v-2.09a6.66,6.66,0,0,1-5.27,2.32,6.6,6.6,0,0,1-4.81-1.75,7,7,0,0,1-1.89-5.25V695.53h2.73v11.52q0,5,4.56,5a4.53,4.53,0,0,0,3.42-1.29,5.05,5.05,0,0,0,1.26-3.68V695.53h2.73Z"/><path class="cls-1" d="M301.53,697.05l-2,2.05a4.4,4.4,0,0,0-3.23-1.36,4.07,4.07,0,0,0-3.24,1.42,5.26,5.26,0,0,0-1.24,3.59v11.48h-2.74v-18.7h2.74v2.28A5.8,5.8,0,0,1,297,695.3,6.1,6.1,0,0,1,301.53,697.05Z"/><path class="cls-1" d="M318.44,714.23H315.7v-1.79a7.3,7.3,0,0,1-5.39,2q-3.62,0-5.29-1.71a5.25,5.25,0,0,1-1.4-3.8,4.93,4.93,0,0,1,1.69-4,7.15,7.15,0,0,1,4.77-1.44h5.62v-1.79q0-4.1-4.78-4.1a5.42,5.42,0,0,0-4.72,2.13l-1.86-1.71a6.83,6.83,0,0,1,2.81-2.21,10.56,10.56,0,0,1,3.8-.57q7.49,0,7.49,6.24Zm-2.74-6.61v-2h-5.24q-4.18,0-4.18,3.31t4.29,3.19a5.87,5.87,0,0,0,4.18-1.25A4.38,4.38,0,0,0,315.7,707.62Z"/><path class="cls-1" d="M331.7,714.23h-2a4.47,4.47,0,0,1-3.55-1.37,5.28,5.28,0,0,1-1.2-3.61V687.17h2.74v22c0,1.82.84,2.73,2.51,2.73h1.48Z"/><path class="cls-1" d="M353.13,697.74h-4v16.49h-2.73V697.74H344v-2.09h2.4V692.1a5.19,5.19,0,0,1,1.17-3.55,4.46,4.46,0,0,1,3.58-1.49h2v2.35h-1.48c-1.67,0-2.51.92-2.51,2.76v3.48h4Z"/><path class="cls-1" d="M364.38,714.23h-2a4.47,4.47,0,0,1-3.55-1.37,5.28,5.28,0,0,1-1.2-3.61V687.17h2.74v22c0,1.82.84,2.73,2.51,2.73h1.48Z"/><path class="cls-1" d="M382.39,714.23h-2.74v-1.79a7.3,7.3,0,0,1-5.39,2q-3.61,0-5.28-1.71a5.22,5.22,0,0,1-1.41-3.8,4.93,4.93,0,0,1,1.69-4,7.15,7.15,0,0,1,4.77-1.44h5.62v-1.79q0-4.1-4.78-4.1a5.42,5.42,0,0,0-4.72,2.13l-1.86-1.71a6.83,6.83,0,0,1,2.81-2.21,10.56,10.56,0,0,1,3.8-.57q7.5,0,7.49,6.24Zm-2.74-6.61v-2h-5.24q-4.19,0-4.18,3.31t4.29,3.19a5.91,5.91,0,0,0,4.19-1.25A4.42,4.42,0,0,0,379.65,707.62Z"/><path class="cls-1" d="M402.15,695.53l-6.88,18.7h-2.43L386,695.53h3l5.1,15,5.13-15Z"/><path class="cls-1" d="M420.28,704.88q0,5.13-2.28,7.45a7.81,7.81,0,0,1-10.72,0Q405,710,405,704.88t2.28-7.45a7.81,7.81,0,0,1,10.72,0Q420.28,699.76,420.28,704.88Zm-2.74,0q0-4.29-1.48-5.78a4.64,4.64,0,0,0-3.42-1.36,4.58,4.58,0,0,0-3.38,1.36c-1,1-1.52,2.94-1.52,5.78s.5,4.76,1.52,5.78a4.58,4.58,0,0,0,3.38,1.36,4.73,4.73,0,0,0,3.48-1.42Q417.54,709.18,417.54,704.88Z"/><path class="cls-1" d="M440.68,714.23H438v-2.09a6.66,6.66,0,0,1-5.27,2.32,6.6,6.6,0,0,1-4.81-1.75,7,7,0,0,1-1.89-5.25V695.53h2.73v11.52q0,5,4.56,5a4.53,4.53,0,0,0,3.42-1.29,5.05,5.05,0,0,0,1.26-3.68V695.53h2.73Z"/><path class="cls-1" d="M460,697.05l-2,2.05a4.4,4.4,0,0,0-3.23-1.36,4.07,4.07,0,0,0-3.24,1.42,5.26,5.26,0,0,0-1.24,3.59v11.48h-2.74v-18.7h2.74v2.28a5.8,5.8,0,0,1,5.24-2.51A6.1,6.1,0,0,1,460,697.05Z"/><path class="cls-1" d="M477,708.76a4.91,4.91,0,0,1-2.07,4.18,9.18,9.18,0,0,1-5.53,1.52,10.64,10.64,0,0,1-7.68-2.7l1.83-1.83a7.6,7.6,0,0,0,5.81,2.17q5,0,5-3.31,0-2.46-3.12-2.73l-3.07-.27q-5.6-.49-5.59-5a4.76,4.76,0,0,1,1.92-4,7.87,7.87,0,0,1,5-1.49,10.28,10.28,0,0,1,6.72,2l-1.78,1.78a8,8,0,0,0-5-1.48q-4.19,0-4.18,3.08,0,2.43,3.27,2.74l3,.26Q477,704.2,477,708.76Z"/><path class="cls-1" d="M849.43,675.3a6.85,6.85,0,0,1-2.54,5.6,10.42,10.42,0,0,1-6.8,2.07,12.56,12.56,0,0,1-9.28-3.57l2-2a10,10,0,0,0,7.37,3,7.42,7.42,0,0,0,4.68-1.33,4.4,4.4,0,0,0,1.71-3.68,4.29,4.29,0,0,0-1.3-3.39,7,7,0,0,0-3.53-1.29l-3.15-.49q-7-1.11-7-7.11a7.09,7.09,0,0,1,2.33-5.55,9.17,9.17,0,0,1,6.33-2.09,11.64,11.64,0,0,1,8.06,3l-1.87,1.86a9,9,0,0,0-6.3-2.32,6,6,0,0,0-4.18,1.37,4.65,4.65,0,0,0-1.52,3.65,3.89,3.89,0,0,0,1.25,3.13,7.19,7.19,0,0,0,3.61,1.46l3,.46a9.67,9.67,0,0,1,4.94,1.9A6.66,6.66,0,0,1,849.43,675.3Z"/><path class="cls-1" d="M881.7,682.75H879V671.23c0-3.31-1.53-5-4.6-5a4.64,4.64,0,0,0-3.38,1.26,4.55,4.55,0,0,0-1.29,3.42v11.82H867V671.23c0-3.31-1.53-5-4.6-5a4.57,4.57,0,0,0-3.42,1.3,5.09,5.09,0,0,0-1.25,3.68v11.52h-2.74v-18.7h2.74v2.05a6.7,6.7,0,0,1,5.28-2.28,6.07,6.07,0,0,1,5.74,3.12,7.11,7.11,0,0,1,6.16-3.12,6.62,6.62,0,0,1,4.82,1.75,6.91,6.91,0,0,1,2,5.21Z"/><path class="cls-1" d="M902.63,673.4q0,5.13-2.28,7.45a7.82,7.82,0,0,1-10.71,0q-2.28-2.33-2.28-7.45t2.28-7.45a7.8,7.8,0,0,1,10.71,0Q902.63,668.28,902.63,673.4Zm-2.73,0c0-2.86-.5-4.79-1.48-5.78a4.68,4.68,0,0,0-3.42-1.37,4.62,4.62,0,0,0-3.39,1.37c-1,1-1.52,2.94-1.52,5.78s.51,4.76,1.52,5.77a4.58,4.58,0,0,0,3.39,1.37,4.72,4.72,0,0,0,3.47-1.42Q899.9,677.7,899.9,673.4Z"/><path class="cls-1" d="M922.77,673.4q0,5.13-2.28,7.45a7.82,7.82,0,0,1-10.71,0q-2.28-2.33-2.28-7.45t2.28-7.45a7.8,7.8,0,0,1,10.71,0Q922.77,668.28,922.77,673.4Zm-2.73,0c0-2.86-.5-4.79-1.48-5.78a4.68,4.68,0,0,0-3.42-1.37,4.62,4.62,0,0,0-3.39,1.37c-1,1-1.52,2.94-1.52,5.78s.51,4.76,1.52,5.77a4.58,4.58,0,0,0,3.39,1.37,4.72,4.72,0,0,0,3.47-1.42Q920,677.7,920,673.4Z"/><path class="cls-1" d="M935.84,682.75h-1.93a4.43,4.43,0,0,1-3.58-1.49,5,5,0,0,1-1.21-3.53V666.25h-2.36v-2.08h2.36v-5.86h2.74v5.86h4v2.08h-4v11.41c0,1.82.84,2.73,2.54,2.73h1.44Z"/><path class="cls-1" d="M956,682.75h-2.74V671.2q0-5-4.56-5a4.59,4.59,0,0,0-3.42,1.28A5,5,0,0,0,944,671.2v11.55h-2.74V655.69H944V666.1a6.66,6.66,0,0,1,5.24-2.28,6.5,6.5,0,0,1,4.94,1.87,7,7,0,0,1,1.79,5Z"/><path class="cls-1" d="M994.14,682.75h-3.61l-2.44-3a11.32,11.32,0,0,1-8,3.19,8.81,8.81,0,0,1-6.23-2.14,7.44,7.44,0,0,1-2.32-5.72,7.14,7.14,0,0,1,1.83-4.83,21.29,21.29,0,0,1,4-3.27,26.21,26.21,0,0,1-2-2.62,6.61,6.61,0,0,1-1-3.27,5.34,5.34,0,0,1,1.69-4,5.94,5.94,0,0,1,4.28-1.62,5.78,5.78,0,0,1,4.21,1.64,5.43,5.43,0,0,1,1.68,4.06q0,2.77-3,4.83l-2,1.37,6.92,8.32a11.47,11.47,0,0,0,1.52-6.19h2.73q-.07,5.35-2.5,8.28Zm-7.68-4.94-7.45-9a21.68,21.68,0,0,0-3.19,2.54,5.32,5.32,0,0,0-1.44,3.65,5.12,5.12,0,0,0,1.59,3.9,5.76,5.76,0,0,0,4.11,1.5A9.41,9.41,0,0,0,986.46,677.81Zm-2.85-16.67a3.18,3.18,0,0,0-.91-2.31,3,3,0,0,0-2.26-.93,3,3,0,0,0-2.23.89,3.15,3.15,0,0,0-.87,2.28q0,1.48,2.42,4.46l1.43-1C982.8,663.42,983.61,662.29,983.61,661.14Z"/><path class="cls-1" d="M1022.07,665.57l-2,2a4.43,4.43,0,0,0-3.23-1.37,4.11,4.11,0,0,0-3.25,1.43,5.3,5.3,0,0,0-1.23,3.59v11.48h-2.74v-18.7h2.74v2.28a5.8,5.8,0,0,1,5.24-2.51A6.1,6.1,0,0,1,1022.07,665.57Z"/><path class="cls-1" d="M1039.89,673.4q0,5.13-2.28,7.45a7.84,7.84,0,0,1-10.72,0q-2.28-2.33-2.28-7.45t2.28-7.45a7.81,7.81,0,0,1,10.72,0Q1039.89,668.28,1039.89,673.4Zm-2.74,0q0-4.29-1.48-5.78a4.9,4.9,0,0,0-6.8,0c-1,1-1.52,2.94-1.52,5.78s.5,4.76,1.52,5.77a4.56,4.56,0,0,0,3.38,1.37,4.73,4.73,0,0,0,3.48-1.42Q1037.16,677.7,1037.15,673.4Z"/><path class="cls-1" d="M1060.6,673.4q0,5.65-2.28,7.94a6.16,6.16,0,0,1-4.56,1.63,6.26,6.26,0,0,1-5.28-2.47v2.25h-2.74V655.69h2.74v10.53a6.29,6.29,0,0,1,5.28-2.4,6.17,6.17,0,0,1,4.56,1.64C1059.84,667,1060.6,669.62,1060.6,673.4Zm-2.74,0a11.62,11.62,0,0,0-.8-4.94,4.5,4.5,0,0,0-7.75,0,15.12,15.12,0,0,0,0,9.88,4.51,4.51,0,0,0,7.75,0A11.62,11.62,0,0,0,1057.86,673.4Z"/><path class="cls-1" d="M1081,682.75h-2.73v-2.09a7.33,7.33,0,0,1-10.08.57,7,7,0,0,1-1.89-5.25V664.05H1069v11.52q0,5,4.56,5a4.53,4.53,0,0,0,3.42-1.29,5.05,5.05,0,0,0,1.26-3.68V664.05H1081Z"/><path class="cls-1" d="M1101.33,677.28a4.91,4.91,0,0,1-2.07,4.18,9.15,9.15,0,0,1-5.53,1.51,10.6,10.6,0,0,1-7.67-2.69l1.82-1.83a7.62,7.62,0,0,0,5.82,2.17q5,0,5-3.31c0-1.64-1-2.56-3.11-2.73l-3.08-.27c-3.72-.33-5.59-2-5.59-5a4.78,4.78,0,0,1,1.92-4,8,8,0,0,1,5-1.48,10.31,10.31,0,0,1,6.73,2l-1.79,1.78a8,8,0,0,0-5-1.48c-2.78,0-4.18,1-4.18,3.08q0,2.43,3.27,2.74l3,.26C1099.5,672.55,1101.33,674.24,1101.33,677.28Z"/><path class="cls-1" d="M1113.87,682.75h-1.93a4.43,4.43,0,0,1-3.58-1.49,5,5,0,0,1-1.21-3.53V666.25h-2.36v-2.08h2.36v-5.86h2.73v5.86h4v2.08h-4v11.41q0,2.73,2.55,2.73h1.44Z"/><path class="cls-1" d="M812.94,700.37l-5.89,18.7H804.5l-4.9-14.52-4.87,14.52h-2.54l-5.93-18.7h3l4.3,15,4.9-15h2.36l4.94,15,4.25-15Z"/><path class="cls-1" d="M819.7,695.05h-3.08V692h3.08Zm-.19,24h-2.74v-18.7h2.74Z"/><path class="cls-1" d="M833.61,719.07h-1.94a4.39,4.39,0,0,1-3.57-1.48,5.06,5.06,0,0,1-1.22-3.54V702.58h-2.35v-2.09h2.35v-5.85h2.74v5.85h4v2.09h-4V714c0,1.82.85,2.73,2.54,2.73h1.45Z"/><path class="cls-1" d="M853.71,719.07H851V707.52q0-4.93-4.56-4.94a4.59,4.59,0,0,0-3.42,1.27,5,5,0,0,0-1.25,3.67v11.55H839V692h2.74v10.42a6.66,6.66,0,0,1,5.24-2.28,6.51,6.51,0,0,1,4.94,1.86,7,7,0,0,1,1.79,5Z"/><path class="cls-1" d="M874.65,709.72q0,5.13-2.28,7.45a7.81,7.81,0,0,1-10.72,0q-2.28-2.32-2.28-7.45t2.28-7.45a7.84,7.84,0,0,1,10.72,0Q874.65,704.6,874.65,709.72Zm-2.74,0c0-2.86-.49-4.79-1.48-5.77a4.9,4.9,0,0,0-6.8,0c-1,1-1.52,2.94-1.52,5.77s.5,4.77,1.52,5.78a4.6,4.6,0,0,0,3.38,1.37,4.74,4.74,0,0,0,3.48-1.43Q871.92,714,871.91,709.72Z"/><path class="cls-1" d="M895.05,719.07h-2.73V717a6.63,6.63,0,0,1-5.27,2.32,6.55,6.55,0,0,1-4.81-1.75,7,7,0,0,1-1.89-5.24V700.37h2.73v11.52q0,5,4.56,5a4.5,4.5,0,0,0,3.42-1.3,5.05,5.05,0,0,0,1.26-3.68V700.37h2.73Z"/><path class="cls-1" d="M909.07,719.07h-1.93a4.43,4.43,0,0,1-3.58-1.48,5.05,5.05,0,0,1-1.21-3.54V702.58H900v-2.09h2.36v-5.85h2.73v5.85h4v2.09h-4V714q0,2.73,2.55,2.73h1.44Z"/><path class="cls-1" d="M937.31,719.07h-2.74v-1.79a7.26,7.26,0,0,1-5.39,2q-3.61,0-5.29-1.71a5.24,5.24,0,0,1-1.4-3.8,4.91,4.91,0,0,1,1.69-3.95,7.1,7.1,0,0,1,4.77-1.45h5.62v-1.78c0-2.74-1.59-4.11-4.79-4.11a5.4,5.4,0,0,0-4.71,2.13l-1.86-1.71a6.8,6.8,0,0,1,2.81-2.2,10.52,10.52,0,0,1,3.8-.57q7.48,0,7.49,6.23Zm-2.74-6.61v-2h-5.24c-2.79,0-4.18,1.11-4.18,3.31s1.43,3.19,4.29,3.19a5.87,5.87,0,0,0,4.18-1.25A4.42,4.42,0,0,0,934.57,712.46Z"/><path class="cls-1" d="M958.62,719.07h-2.73V707.56q0-5-4.6-5a4.48,4.48,0,0,0-3.4,1.29,5.14,5.14,0,0,0-1.23,3.69v11.51h-2.74v-18.7h2.74v2.06a6.66,6.66,0,0,1,5.24-2.28,6.57,6.57,0,0,1,4.79,1.74,7,7,0,0,1,1.93,5.21Z"/><path class="cls-1" d="M978.42,700.37l-8.51,23.22a5.77,5.77,0,0,1-1.33,2.21,5.1,5.1,0,0,1-3.65,1.29h-1.17v-2.43h.83a3.16,3.16,0,0,0,2-.5,4.34,4.34,0,0,0,1.1-1.82l1.33-3.65-6.73-18.32h3l5.13,15,5.09-15Z"/><path class="cls-1" d="M1006.58,709.72c0,3.78-.76,6.42-2.28,7.94a6.17,6.17,0,0,1-4.56,1.64,6.29,6.29,0,0,1-5.28-2.47v2.24h-2.74V692h2.74v10.53a6.28,6.28,0,0,1,5.28-2.39,6.16,6.16,0,0,1,4.56,1.63Q1006.58,704.06,1006.58,709.72Zm-2.74,0a11.8,11.8,0,0,0-.79-4.94,4.52,4.52,0,0,0-7.76,0,15.12,15.12,0,0,0,0,9.88,4.51,4.51,0,0,0,7.76,0A11.77,11.77,0,0,0,1003.84,709.72Z"/><path class="cls-1" d="M1015.36,695.05h-3.08V692h3.08Zm-.19,24h-2.74v-18.7h2.74Z"/><path class="cls-1" d="M1029.27,719.07h-1.94a4.39,4.39,0,0,1-3.57-1.48,5.06,5.06,0,0,1-1.22-3.54V702.58h-2.36v-2.09h2.36v-5.85h2.74v5.85h4v2.09h-4V714c0,1.82.84,2.73,2.54,2.73h1.45Z"/><path class="cls-1" d="M1041.88,719.07h-1.94a4.42,4.42,0,0,1-3.57-1.48,5.05,5.05,0,0,1-1.21-3.54V702.58h-2.36v-2.09h2.36v-5.85h2.73v5.85h4v2.09h-4V714q0,2.73,2.55,2.73h1.44Z"/><path class="cls-1" d="M1061.6,710.44H1049a7.14,7.14,0,0,0,1.42,4.75,5.06,5.06,0,0,0,4.09,1.68,6.8,6.8,0,0,0,4.9-2.09l1.86,1.63a10.45,10.45,0,0,1-2.93,2.17,9.61,9.61,0,0,1-3.91.72,7.57,7.57,0,0,1-5.93-2.32q-2.23-2.43-2.24-7.26a10.9,10.9,0,0,1,2-7.05,6.86,6.86,0,0,1,5.63-2.52,7,7,0,0,1,5.64,2.43,10,10,0,0,1,2,6.61Zm-2.73-2.05a10.47,10.47,0,0,0-.57-3.11,4.8,4.8,0,0,0-8.74,0,9.87,9.87,0,0,0-.57,3.11Z"/><path class="cls-1" d="M1079.88,701.89l-2,2.06a4.39,4.39,0,0,0-3.23-1.37,4.07,4.07,0,0,0-3.25,1.42,5.26,5.26,0,0,0-1.24,3.59v11.48h-2.73v-18.7h2.73v2.28a5.8,5.8,0,0,1,5.25-2.5A6.07,6.07,0,0,1,1079.88,701.89Z"/><path class="cls-1" d="M1098.12,719.07h-2.74V707.56q0-5-4.59-5a4.51,4.51,0,0,0-3.41,1.29,5.14,5.14,0,0,0-1.23,3.69v11.51h-2.74v-18.7h2.74v2.06a6.66,6.66,0,0,1,5.24-2.28,6.56,6.56,0,0,1,4.79,1.74,7,7,0,0,1,1.94,5.21Z"/><path class="cls-1" d="M1119.1,710.44h-12.62a7.15,7.15,0,0,0,1.43,4.75,5.05,5.05,0,0,0,4.08,1.68,6.8,6.8,0,0,0,4.9-2.09l1.86,1.63a10.42,10.42,0,0,1-2.92,2.17,9.68,9.68,0,0,1-3.91.72A7.55,7.55,0,0,1,1106,717q-2.25-2.43-2.25-7.26a10.9,10.9,0,0,1,2.06-7.05,6.86,6.86,0,0,1,5.62-2.52,6.94,6.94,0,0,1,5.64,2.43,10,10,0,0,1,2,6.61Zm-2.74-2.05a10.47,10.47,0,0,0-.57-3.11,4.8,4.8,0,0,0-8.74,0,10.47,10.47,0,0,0-.57,3.11Z"/><path class="cls-1" d="M1138.44,713.6a4.9,4.9,0,0,1-2.07,4.18,9.18,9.18,0,0,1-5.53,1.52,10.63,10.63,0,0,1-7.68-2.7l1.83-1.82a7.61,7.61,0,0,0,5.81,2.16q5,0,5-3.3c0-1.65-1-2.56-3.12-2.74l-3.08-.27c-3.72-.32-5.58-2-5.58-5a4.78,4.78,0,0,1,1.92-4,7.87,7.87,0,0,1,5-1.48,10.34,10.34,0,0,1,6.72,2l-1.78,1.79a8,8,0,0,0-5-1.49q-4.18,0-4.18,3.08c0,1.62,1.09,2.54,3.27,2.74l3,.26Q1138.44,709,1138.44,713.6Z"/><path class="cls-1" d="M1157.29,713.6a4.89,4.89,0,0,1-2.08,4.18,9.14,9.14,0,0,1-5.52,1.52,10.61,10.61,0,0,1-7.68-2.7l1.82-1.82a7.65,7.65,0,0,0,5.82,2.16q5,0,5-3.3c0-1.65-1-2.56-3.12-2.74l-3.08-.27c-3.72-.32-5.58-2-5.58-5a4.8,4.8,0,0,1,1.91-4,7.89,7.89,0,0,1,5-1.48,10.37,10.37,0,0,1,6.73,2l-1.79,1.79a7.94,7.94,0,0,0-5-1.49q-4.18,0-4.18,3.08c0,1.62,1.08,2.54,3.26,2.74l3,.26Q1157.29,709,1157.29,713.6Z"/><path class="cls-1" d="M1443.91,675.3a6.82,6.82,0,0,1-2.55,5.6,10.38,10.38,0,0,1-6.8,2.07,12.54,12.54,0,0,1-9.27-3.57l2-2a10,10,0,0,0,7.38,3,7.41,7.41,0,0,0,4.67-1.33,4.4,4.4,0,0,0,1.71-3.68,4.29,4.29,0,0,0-1.29-3.39,7,7,0,0,0-3.54-1.29l-3.15-.49q-7-1.11-7-7.11a7.1,7.1,0,0,1,2.34-5.55,9.14,9.14,0,0,1,6.32-2.09,11.62,11.62,0,0,1,8.06,3l-1.86,1.86a9,9,0,0,0-6.31-2.32,6,6,0,0,0-4.18,1.37,4.68,4.68,0,0,0-1.52,3.65,3.92,3.92,0,0,0,1.25,3.13,7.19,7.19,0,0,0,3.61,1.46l3,.46a9.71,9.71,0,0,1,4.94,1.9A6.66,6.66,0,0,1,1443.91,675.3Z"/><path class="cls-1" d="M1464,682.75h-2.73v-2.09a7.33,7.33,0,0,1-10.08.57,7,7,0,0,1-1.89-5.25V664.05H1452v11.52q0,5,4.56,5a4.53,4.53,0,0,0,3.42-1.29,5.05,5.05,0,0,0,1.26-3.68V664.05H1464Z"/><path class="cls-1" d="M1485.63,673.4q0,5.65-2.28,7.94a6.16,6.16,0,0,1-4.56,1.63,6.29,6.29,0,0,1-5.28-2.47v2.25h-2.74V655.69h2.74v10.53a6.29,6.29,0,0,1,5.28-2.4,6.17,6.17,0,0,1,4.56,1.64C1484.87,667,1485.63,669.62,1485.63,673.4Zm-2.73,0a11.78,11.78,0,0,0-.8-4.94,4.5,4.5,0,0,0-7.75,0,14.95,14.95,0,0,0,0,9.88,4.51,4.51,0,0,0,7.75,0A11.78,11.78,0,0,0,1482.9,673.4Z"/><path class="cls-1" d="M1498.7,682.75h-1.93a4.43,4.43,0,0,1-3.58-1.49,5,5,0,0,1-1.21-3.53V666.25h-2.36v-2.08H1492v-5.86h2.73v5.86h4v2.08h-4v11.41q0,2.73,2.55,2.73h1.44Z"/><path class="cls-1" d="M1510.75,682.75h-2a4.47,4.47,0,0,1-3.55-1.37,5.28,5.28,0,0,1-1.2-3.61V655.69h2.74v22c0,1.82.84,2.73,2.51,2.73h1.48Z"/><path class="cls-1" d="M1529.71,674.12h-12.62a7.12,7.12,0,0,0,1.43,4.74,5.05,5.05,0,0,0,4.08,1.68,6.79,6.79,0,0,0,4.91-2.09l1.86,1.64a10.39,10.39,0,0,1-2.93,2.16,9.65,9.65,0,0,1-3.91.72,7.58,7.58,0,0,1-5.93-2.31q-2.24-2.43-2.24-7.26a10.88,10.88,0,0,1,2.05-7,6.87,6.87,0,0,1,5.63-2.53,7,7,0,0,1,5.64,2.43,10.05,10.05,0,0,1,2,6.62Zm-2.74-2a10.21,10.21,0,0,0-.56-3.12,4.8,4.8,0,0,0-8.74,0,10.14,10.14,0,0,0-.58,3.12Z"/><path class="cls-1" d="M1558.36,682.75h-2.73V681a7.31,7.31,0,0,1-5.4,2c-2.41,0-4.17-.56-5.28-1.71a5.19,5.19,0,0,1-1.41-3.8,5,5,0,0,1,1.69-4,7.15,7.15,0,0,1,4.77-1.44h5.63v-1.79q0-4.1-4.79-4.1a5.39,5.39,0,0,0-4.71,2.13l-1.86-1.71a6.77,6.77,0,0,1,2.81-2.21,10.52,10.52,0,0,1,3.8-.57q7.48,0,7.48,6.23Zm-2.73-6.62v-2h-5.25c-2.78,0-4.18,1.1-4.18,3.31s1.43,3.19,4.3,3.19a5.88,5.88,0,0,0,4.18-1.25A4.43,4.43,0,0,0,1555.63,676.13Z"/><path class="cls-1" d="M1577.44,665.57l-2,2a4.41,4.41,0,0,0-3.23-1.37,4.08,4.08,0,0,0-3.24,1.43,5.26,5.26,0,0,0-1.24,3.59v11.48H1565v-18.7h2.74v2.28a5.81,5.81,0,0,1,5.25-2.51A6.1,6.1,0,0,1,1577.44,665.57Z"/><path class="cls-1" d="M1595.26,673.4q0,5.13-2.28,7.45a7.84,7.84,0,0,1-10.72,0q-2.28-2.33-2.28-7.45t2.28-7.45a7.81,7.81,0,0,1,10.72,0Q1595.26,668.28,1595.26,673.4Zm-2.74,0q0-4.29-1.48-5.78a4.9,4.9,0,0,0-6.8,0c-1,1-1.52,2.94-1.52,5.78s.51,4.76,1.52,5.77a4.56,4.56,0,0,0,3.38,1.37,4.73,4.73,0,0,0,3.48-1.42Q1592.53,677.7,1592.52,673.4Z"/><path class="cls-1" d="M1627.86,682.75h-2.73V671.23c0-3.31-1.53-5-4.6-5a4.64,4.64,0,0,0-3.38,1.26,4.55,4.55,0,0,0-1.29,3.42v11.82h-2.74V671.23c0-3.31-1.53-5-4.6-5a4.57,4.57,0,0,0-3.42,1.3,5.09,5.09,0,0,0-1.25,3.68v11.52h-2.74v-18.7h2.74v2.05a6.7,6.7,0,0,1,5.28-2.28,6.07,6.07,0,0,1,5.74,3.12,7.11,7.11,0,0,1,6.15-3.12,6.63,6.63,0,0,1,4.83,1.75,6.9,6.9,0,0,1,2,5.21Z"/><path class="cls-1" d="M1647.89,682.75h-2.74V681a7.29,7.29,0,0,1-5.39,2c-2.41,0-4.17-.56-5.28-1.71a5.19,5.19,0,0,1-1.41-3.8,4.92,4.92,0,0,1,1.69-4,7.15,7.15,0,0,1,4.77-1.44h5.62v-1.79q0-4.1-4.78-4.1a5.42,5.42,0,0,0-4.72,2.13l-1.86-1.71a6.83,6.83,0,0,1,2.81-2.21,10.56,10.56,0,0,1,3.8-.57q7.49,0,7.49,6.23Zm-2.74-6.62v-2h-5.24q-4.19,0-4.18,3.31c0,2.12,1.43,3.19,4.29,3.19a5.87,5.87,0,0,0,4.18-1.25A4.39,4.39,0,0,0,1645.15,676.13Z"/><path class="cls-1" d="M1661.72,682.75h-1.94a4.43,4.43,0,0,1-3.57-1.49,5,5,0,0,1-1.21-3.53V666.25h-2.36v-2.08H1655v-5.86h2.73v5.86h4v2.08h-4v11.41q0,2.73,2.55,2.73h1.44Z"/><path class="cls-1" d="M1670,658.73H1667v-3.08H1670Zm-.19,24h-2.73v-18.7h2.73Z"/><path class="cls-1" d="M1690.14,680.2a9,9,0,0,1-2.81,2.17,8.28,8.28,0,0,1-3.34.6,7.6,7.6,0,0,1-5.89-2.39q-2.4-2.55-2.4-7.18t2.4-7.18a7.61,7.61,0,0,1,5.89-2.4,8.27,8.27,0,0,1,3.34.61,9,9,0,0,1,2.81,2.17l-1.86,1.74a5.69,5.69,0,0,0-4.29-2.09,5,5,0,0,0-4.33,2.13,10.94,10.94,0,0,0,0,10,5,5,0,0,0,4.33,2.12,5.74,5.74,0,0,0,4.29-2.12Z"/><path class="cls-1" d="M1442.81,719.07h-3.61l-2.44-3a11.36,11.36,0,0,1-8,3.19,8.82,8.82,0,0,1-6.23-2.15,7.44,7.44,0,0,1-2.32-5.72,7.09,7.09,0,0,1,1.83-4.82,20.54,20.54,0,0,1,4-3.27,28.77,28.77,0,0,1-2-2.62,6.66,6.66,0,0,1-.95-3.27,5.37,5.37,0,0,1,1.69-4.05,6,6,0,0,1,4.28-1.61,5.77,5.77,0,0,1,4.21,1.63,5.45,5.45,0,0,1,1.68,4.07c0,1.85-1,3.45-3,4.82l-2,1.37,6.92,8.32a11.44,11.44,0,0,0,1.52-6.19h2.73q-.08,5.36-2.5,8.28Zm-7.68-4.94-7.45-9a20.92,20.92,0,0,0-3.19,2.55,5.29,5.29,0,0,0-1.44,3.65,5.11,5.11,0,0,0,1.59,3.89,5.76,5.76,0,0,0,4.11,1.5A9.37,9.37,0,0,0,1435.13,714.13Zm-2.85-16.67a3.19,3.19,0,0,0-.91-2.31,3,3,0,0,0-2.26-.93,3,3,0,0,0-2.23.9,3.11,3.11,0,0,0-.87,2.27q0,1.49,2.42,4.47c.27-.18.75-.51,1.43-1C1431.47,699.74,1432.28,698.61,1432.28,697.46Z"/><path class="cls-1" d="M1472.18,719.07h-2.74v-2.24a6.29,6.29,0,0,1-5.3,2.47,6.12,6.12,0,0,1-4.54-1.64c-1.52-1.52-2.28-4.16-2.28-7.94s.76-6.42,2.28-7.94a6.16,6.16,0,0,1,4.56-1.63,6.28,6.28,0,0,1,5.28,2.39V692h2.74Zm-2.74-9.35a11.8,11.8,0,0,0-.79-4.94,4.52,4.52,0,0,0-7.76,0,15.12,15.12,0,0,0,0,9.88,4.51,4.51,0,0,0,7.76,0A11.77,11.77,0,0,0,1469.44,709.72Z"/><path class="cls-1" d="M1493.31,710.44h-12.62a7.15,7.15,0,0,0,1.43,4.75,5.05,5.05,0,0,0,4.08,1.68,6.79,6.79,0,0,0,4.9-2.09l1.87,1.63a10.59,10.59,0,0,1-2.93,2.17,9.65,9.65,0,0,1-3.91.72,7.55,7.55,0,0,1-5.93-2.32c-1.5-1.62-2.24-4-2.24-7.26a10.9,10.9,0,0,1,2-7.05,6.86,6.86,0,0,1,5.62-2.52,7,7,0,0,1,5.65,2.43,10,10,0,0,1,2,6.61Zm-2.74-2.05a9.87,9.87,0,0,0-.57-3.11,4.8,4.8,0,0,0-8.74,0,10.47,10.47,0,0,0-.57,3.11Z"/><path class="cls-1" d="M1505.77,719.07h-2a4.48,4.48,0,0,1-3.56-1.37,5.31,5.31,0,0,1-1.19-3.61V692h2.73v22c0,1.82.84,2.73,2.51,2.73h1.48Z"/><path class="cls-1" d="M1513.33,695.05h-3.07V692h3.07Zm-.19,24h-2.73v-18.7h2.73Z"/><path class="cls-1" d="M1533.44,716.52a8.87,8.87,0,0,1-2.82,2.17,8.1,8.1,0,0,1-3.34.61,7.61,7.61,0,0,1-5.89-2.4c-1.6-1.69-2.39-4.09-2.39-7.18s.79-5.48,2.39-7.18a7.6,7.6,0,0,1,5.89-2.39,8.28,8.28,0,0,1,3.34.6,9,9,0,0,1,2.82,2.17l-1.87,1.75a5.68,5.68,0,0,0-4.29-2.09,5,5,0,0,0-4.33,2.13,10.92,10.92,0,0,0,0,10,5,5,0,0,0,4.33,2.13,5.72,5.72,0,0,0,4.29-2.13Z"/><path class="cls-1" d="M1541.57,695.05h-3.08V692h3.08Zm-.19,24h-2.74v-18.7h2.74Z"/><path class="cls-1" d="M1562.54,709.72q0,5.13-2.28,7.45a7.8,7.8,0,0,1-10.71,0q-2.28-2.32-2.28-7.45t2.28-7.45a7.82,7.82,0,0,1,10.71,0Q1562.54,704.6,1562.54,709.72Zm-2.73,0c0-2.86-.5-4.79-1.48-5.77a4.64,4.64,0,0,0-3.42-1.37,4.57,4.57,0,0,0-3.39,1.37c-1,1-1.52,2.94-1.52,5.77s.51,4.77,1.52,5.78a4.61,4.61,0,0,0,3.39,1.37,4.73,4.73,0,0,0,3.47-1.43Q1559.8,714,1559.81,709.72Z"/><path class="cls-1" d="M1583,719.07h-2.74V717a6.61,6.61,0,0,1-5.26,2.32,6.54,6.54,0,0,1-4.81-1.75,7,7,0,0,1-1.9-5.24V700.37H1571v11.52q0,5,4.56,5a4.53,4.53,0,0,0,3.42-1.3,5.09,5.09,0,0,0,1.25-3.68V700.37H1583Z"/><path class="cls-1" d="M1603.28,713.6a4.9,4.9,0,0,1-2.07,4.18,9.18,9.18,0,0,1-5.53,1.52,10.64,10.64,0,0,1-7.68-2.7l1.83-1.82a7.63,7.63,0,0,0,5.81,2.16q5,0,5-3.3c0-1.65-1-2.56-3.12-2.74l-3.08-.27c-3.72-.32-5.58-2-5.58-5a4.78,4.78,0,0,1,1.92-4,7.87,7.87,0,0,1,5-1.48,10.34,10.34,0,0,1,6.72,2l-1.78,1.79a8,8,0,0,0-5-1.49q-4.18,0-4.18,3.08c0,1.62,1.09,2.54,3.27,2.74l3,.26Q1603.28,709,1603.28,713.6Z"/><path class="cls-1" d="M1632.77,719.07H1630V707.56q0-5-4.6-5a4.48,4.48,0,0,0-3.4,1.29,5.14,5.14,0,0,0-1.23,3.69v11.51h-2.74v-18.7h2.74v2.06a6.66,6.66,0,0,1,5.24-2.28,6.57,6.57,0,0,1,4.79,1.74,7,7,0,0,1,1.94,5.21Z"/><path class="cls-1" d="M1653.7,709.72q0,5.13-2.28,7.45a7.8,7.8,0,0,1-10.71,0q-2.28-2.32-2.28-7.45t2.28-7.45a7.82,7.82,0,0,1,10.71,0Q1653.7,704.6,1653.7,709.72Zm-2.73,0c0-2.86-.5-4.79-1.48-5.77a4.64,4.64,0,0,0-3.42-1.37,4.58,4.58,0,0,0-3.39,1.37c-1,1-1.52,2.94-1.52,5.77s.51,4.77,1.52,5.78a4.62,4.62,0,0,0,3.39,1.37,4.73,4.73,0,0,0,3.47-1.43Q1651,714,1651,709.72Z"/><path class="cls-1" d="M1666.78,719.07h-1.94a4.39,4.39,0,0,1-3.57-1.48,5.06,5.06,0,0,1-1.22-3.54V702.58h-2.36v-2.09h2.36v-5.85h2.74v5.85h4v2.09h-4V714c0,1.82.84,2.73,2.54,2.73h1.45Z"/><path class="cls-1" d="M1686.5,710.44h-12.62a7.15,7.15,0,0,0,1.43,4.75,5.05,5.05,0,0,0,4.08,1.68,6.8,6.8,0,0,0,4.9-2.09l1.87,1.63a10.59,10.59,0,0,1-2.93,2.17,9.68,9.68,0,0,1-3.91.72,7.55,7.55,0,0,1-5.93-2.32q-2.25-2.43-2.25-7.26a10.9,10.9,0,0,1,2.06-7.05,6.86,6.86,0,0,1,5.62-2.52,6.94,6.94,0,0,1,5.64,2.43,10,10,0,0,1,2,6.61Zm-2.74-2.05a10.16,10.16,0,0,0-.57-3.11,4.8,4.8,0,0,0-8.74,0,10.47,10.47,0,0,0-.57,3.11Z"/><path class="cls-1" d="M1705.84,713.6a4.9,4.9,0,0,1-2.07,4.18,9.18,9.18,0,0,1-5.53,1.52,10.64,10.64,0,0,1-7.68-2.7l1.83-1.82a7.63,7.63,0,0,0,5.81,2.16q5,0,5-3.3c0-1.65-1-2.56-3.12-2.74l-3.07-.27c-3.73-.32-5.59-2-5.59-5a4.78,4.78,0,0,1,1.92-4,7.87,7.87,0,0,1,5-1.48,10.34,10.34,0,0,1,6.72,2l-1.78,1.79a8,8,0,0,0-5-1.49q-4.18,0-4.18,3.08c0,1.62,1.09,2.54,3.27,2.74l3,.26Q1705.84,709,1705.84,713.6Z"/><path class="cls-2" d="M1678.07,515.4c-.93-32.54-.21-65.12-.21-97.69v-5H1430.33c-.12.93-.23,1.33-.23,1.74,0,35.62-.1,71.23.06,106.84A40,40,0,0,0,1441,548.5c11.86,13.1,26.93,19,44.43,19q68.6,0,137.21,0a71.09,71.09,0,0,0,11.57-.93C1654.43,563.1,1679,547,1678.07,515.4Zm-81.34-26.15c-12.66,12.83-25.46,25.52-38.2,38.27-.06.06-.15.11-.34.26l-3.76-3.78q-17.06-17.08-34.1-34.16a22.08,22.08,0,0,1,12-37.85,21.63,21.63,0,0,1,18.9,6.25c2.37,2.29,4.67,4.66,7,7.05.31-.29.58-.52.83-.77,2.59-2.55,5-5.29,7.8-7.59,6.41-5.3,13.76-6.63,21.55-3.8s12.66,8.57,14.21,16.77A20.82,20.82,0,0,1,1596.73,489.25Z"/><path class="cls-2" d="M1602.18,153.3c5.81,1.69,11.94,2.7,17.38,5.19,19.31,8.83,30.07,29.19,27.47,50.86A49,49,0,0,1,1608.38,251a89.52,89.52,0,0,1-9.88.9v-9.44c9.24-.21,17.36-2.83,24.44-8.45a40.43,40.43,0,0,0,12.41-45.37c-6.13-16.4-22.12-26.46-40.29-25.34-15.84,1-31.17,13.43-34.72,28.89a76.31,76.31,0,0,0-1.46,16.9c-.12,42.52-.07,85.05-.07,127.57v5.18h-9.66V337.2q0-62.55,0-125.08c0-4.15.31-8.31.38-12.46.42-25.29,22.47-43.6,42.79-45.67a12.91,12.91,0,0,0,2.36-.69Z"/><path class="cls-2" d="M1493.81,329.84v9.34A42.94,42.94,0,0,1,1471.2,334c-18.28-9.64-29.08-30.94-25.81-50.74,3.62-21.92,19.52-38.2,40.64-41.63a50.24,50.24,0,0,1,51.67,25.66,44.68,44.68,0,0,1,5.24,21.16c.2,35.46.14,70.91.16,106.37a4.94,4.94,0,0,1-.29,1.06h-9.22v-5q0-45.07,0-90.16a122,122,0,0,0-.71-17c-2.85-19.86-20.78-34-41.38-33-19.73.94-35.8,17.45-37,38.05-1.13,19.33,13.38,37.43,32.63,40.61C1489.12,329.62,1491.21,329.63,1493.81,329.84Z"/><path class="cls-2" d="M1574.42,396H1565c-.09-1.21-.23-2.4-.24-3.59,0-18.29.14-36.59,0-54.88-.15-17,5.46-31.15,19.1-41.77A49.15,49.15,0,0,1,1638.5,292c17.16,9.9,26.89,29.51,24.22,48.8-2.82,20.34-17,36.73-36.3,41.5-3.94,1-8.07,1.16-12.3,1.74V374.5c3.23-.47,6.27-.68,9.2-1.37,16.61-3.88,28.22-17.64,30.12-35.53,1.67-15.69-7.72-31.86-22.55-38.85-15.53-7.32-33.19-4-45.45,8.48-6.72,6.83-10.54,15-10.67,24.52-.27,19.67-.25,39.35-.34,59C1574.42,392.41,1574.42,394.05,1574.42,396Z"/><path class="cls-3" d="M1613.85,305.4a29.12,29.12,0,1,1,0,58.23,29.12,29.12,0,0,1,0-58.23Zm-19.34,28.91A19.23,19.23,0,0,0,1613.82,354a19.48,19.48,0,0,0,19.78-19.32,19.68,19.68,0,0,0-19.44-19.75A19.43,19.43,0,0,0,1594.51,334.31Z"/><path class="cls-3" d="M1464.92,290.13a29.11,29.11,0,1,1,29,29.12A28.81,28.81,0,0,1,1464.92,290.13Zm28.77,19.53a19.55,19.55,0,0,0,.67-39.09,19.55,19.55,0,1,0-.67,39.09Z"/><path class="cls-3" d="M1597.82,231.71a29.06,29.06,0,0,1-28.64-29.47c.37-16.1,13.64-29,29.49-28.75a29.11,29.11,0,1,1-.85,58.22Zm.46-48.54a19.55,19.55,0,0,0,.15,39.09,19.67,19.67,0,0,0,19.51-19.67A19.44,19.44,0,0,0,1598.28,183.17Z"/><path class="cls-2" d="M1722.35,434.71a22.06,22.06,0,0,1,22,22v3.74a22.06,22.06,0,0,1-22,22h-12.88V434.71h12.88m0-21.61h-34.5v91h34.5A43.65,43.65,0,0,0,1766,460.48v-3.74a43.64,43.64,0,0,0-43.65-43.64Z"/><path class="cls-2" d="M1102.86,185.11c6.47,3.9,7.3,8,2.86,14.25q-18.77,26.43-37.52,52.85c-.62.87-1.16,1.8-1.92,3l4.89.22v15.46c-4.6,0-9.14-.06-13.67.05-1.1,0-2.67.29-3.22,1-5.26,7.15-10.34,14.42-15.81,22.13,1.68.08,2.84.18,4,.18,10.25,0,20.49,0,30.74,0,5.92,0,8.71,2.37,9.21,8.22,1.54,17.87,2.93,35.75,4.39,53.62q2.87,35.3,5.75,70.6,2.46,30.31,4.91,60.62c1.68,20.76,3.31,41.52,5,62.27.54,6.43-2.5,10-8.94,10H862c-6.25,0-9.38-3.61-8.88-9.75,2-23.75,3.84-47.51,5.77-71.27q3.2-39.13,6.42-78.26,2.85-35.13,5.62-70.28,2.69-33.3,5.4-66.6c.44-5.33,3.41-8,8.7-8.11,1.31,0,2.63,0,4.45,0-.8-1.27-1.32-2.19-1.93-3.06q-18.78-26.61-37.58-53.21c-4.35-6.16-3.54-10.12,2.85-13.95ZM1048.42,512.8a5,5,0,0,0-.33,1c0,4.45,0,8.91-.06,13.37,0,6-3,9-9,9q-61.17,0-122.35,0c-6,0-9-3-9-9q0-57.34,0-114.69c0-5.9,2.9-8.84,8.82-8.84q61.34,0,122.69,0c6.06,0,8.86,2.94,8.89,9.12,0,4.65,0,9.29,0,14.79H1077c-3.16-38.72-6.37-78.07-9.6-117.55-12.72,0-25,.06-37.23-.05a5.24,5.24,0,0,0-4.89,2.56q-19.72,28-39.6,55.9c-5.12,7.21-10.49,7.25-15.55.13q-19.92-28.08-39.79-56.18a4.89,4.89,0,0,0-4.64-2.41c-5.46.16-10.92.05-16.38.05H900V294.22h17.28c-5.56-7.82-10.68-15.07-15.86-22.28a2.48,2.48,0,0,0-1.6-1c-2.73-.1-5.46,0-8.43,0-7.4,91.24-14.76,182-22.14,273h217.14c-2.18-26.79-4.33-53.34-6.49-79.9l-.61,0v4.62c0,11.7,0,23.4,0,35.11,0,6-3.06,9.06-9,9.08C1063,512.82,1055.77,512.8,1048.42,512.8Zm-178.25-312c.58,1,.88,1.54,1.26,2.06,12,16.86,24,33.75,36.18,50.52a5.7,5.7,0,0,0,4.1,1.86c44,.1,88,.07,132,.14a5.28,5.28,0,0,0,4.9-2.55q17.43-24.71,35-49.31c.54-.77,1-1.61,1.66-2.72Zm162.05,272.85v-54.3H923.39v54.3ZM920,271c5.6,7.88,10.77,15.23,16.08,22.46.49.66,2,.83,3,.83q38.78.08,77.55-.05a5.81,5.81,0,0,0,4-2.12c4.6-6.15,9-12.47,13.4-18.75a22.52,22.52,0,0,0,1.27-2.37Zm128.27,171.75V497h15.11V442.71Z"/><rect class="cls-3" x="970.12" y="380.52" width="15.35" height="15.05" rx="7.53"/><rect class="cls-3" x="970.24" y="427.34" width="15.23" height="15.16" rx="7.58"/><rect class="cls-3" x="970.24" y="450.61" width="15.22" height="15.17" rx="7.59"/><path class="cls-3" d="M948.57,164.39s-17.43-23.49,0-51.21c0,0,17.43-21.52,0-47.18,0,0,18.38,6.94,11.06,40a65.81,65.81,0,0,1-7.28,18.33A47.42,47.42,0,0,0,948.57,164.39Z"/><path class="cls-3" d="M978.3,164.39s-17.43-23.49,0-51.21c0,0,17.43-21.52,0-47.18,0,0,18.38,6.94,11.06,40a65.81,65.81,0,0,1-7.28,18.33A47.42,47.42,0,0,0,978.3,164.39Z"/><path class="cls-3" d="M1008,164.39s-17.43-23.49,0-51.21c0,0,17.43-21.52,0-47.18,0,0,18.39,6.94,11.06,40a65.81,65.81,0,0,1-7.28,18.33A47.42,47.42,0,0,0,1008,164.39Z"/><polygon class="cls-3" points="977.61 353.98 936.05 293.42 1016.6 294.2 977.61 353.98"/><path class="cls-2" d="M235.73,410.51c-3.06-2.95-6.25-5.45-8.72-8.53a87.6,87.6,0,0,1-9.1-13.24A53,53,0,0,1,213,375.55a105.36,105.36,0,0,1-2.81-19.22,111.53,111.53,0,0,1,1.42-19.72,99,99,0,0,1,7.84-26.06c6.07-13.57,14.18-25.63,25.39-35.61a91.08,91.08,0,0,1,19.95-13.68,64.55,64.55,0,0,1,26-7.13c5.11-.22,10.3.12,15.13,2.3.36.17.76.27,1.1.47,4.11,2.53,4.1,2.53,2.36,7.15-2,5.28-3.69,10.7-6,15.84a189.83,189.83,0,0,1-9.7,19.08c-8.47,14.14-17.48,27.95-26,42.07-6.45,10.72-12.78,21.53-18.53,32.63-3.9,7.52-6.89,15.54-9.92,23.48C237.78,401.13,237.06,405.43,235.73,410.51Z"/><path class="cls-2" d="M399.52,466.18c-14.59,2.24-27.62-.76-39.85-7.9a90.74,90.74,0,0,1-24.42-20.63,92.1,92.1,0,0,1-14.08-22.12,167.26,167.26,0,0,1-8.09-21.71,90.81,90.81,0,0,1-3-24.64,88.15,88.15,0,0,1,6.79-34.38c4.05-9.48,9.65-17.89,18.18-23.94a41.94,41.94,0,0,1,8.19-4.06c1.52-.64,2.84-.42,3.72,1.6,1.8,4.15,4.2,8,6,12.2,1.92,4.47,3.56,9.08,5.05,13.72,2.24,7,4.36,14,6.31,21.05,1.44,5.24,2.61,10.56,3.79,15.87,1.48,6.6,2.82,13.24,4.29,19.85,1.41,6.36,2.73,12.75,4.39,19.05,1.87,7.09,3.86,14.16,6.18,21.11,2.13,6.34,4.52,12.62,7.27,18.71,2,4.41,4.79,8.46,7.22,12.67Z"/><path class="cls-2" d="M406.59,465c-2.26-6.18-4.34-11.49-6.13-16.89-1.86-5.61-3.62-11.28-5.09-17-1.65-6.39-3-12.87-4.36-19.32-2-8.95-3.83-17.91-5.82-26.85-1.46-6.59-2.84-13.22-4.65-19.72-1.63-5.86-3.65-11.62-5.78-17.32a117.59,117.59,0,0,0-6.51-15.26c-3.52-6.44-7.66-12.55-11.66-18.71-2-3-4.21-5.84-6.78-9.38,4.26-.58,7.95-1.31,11.66-1.54,9.71-.6,19,1.75,27.6,5.84,8.12,3.86,15.76,8.8,21.89,15.54,5.22,5.75,10.35,11.64,15,17.87a62.2,62.2,0,0,1,6.9,12.84,170.41,170.41,0,0,1,7.79,21c1.66,6.05,2,12.46,2.86,18.72a70.67,70.67,0,0,1-1.41,24,106.23,106.23,0,0,1-6.33,18.6A47.48,47.48,0,0,1,419.52,458C415.76,460.69,411.34,462.48,406.59,465Z"/><path class="cls-2" d="M314.83,260.89c12.95,7.54,20.85,18.59,25.39,32.3a66.93,66.93,0,0,0-32.83,29.14,80.82,80.82,0,0,0-8.51,21.38A106.24,106.24,0,0,0,296,370.22a134.41,134.41,0,0,0,2.86,24.93c.57,2.89,1.76,5.65,2.52,8.51a2.39,2.39,0,0,1-.45,2.08A90,90,0,0,1,290.29,412a102.75,102.75,0,0,1-13.67,5,48.17,48.17,0,0,1-20.06,1.33c-4.49-.6-8.9-1.5-12.9-3.87-1.15-.68-1.3-1.23-.84-2.32a229.41,229.41,0,0,1,18-34.2c4.83-7.57,9.56-15.22,14.34-22.82,6.67-10.61,13.63-21.05,19.91-31.88,3.82-6.58,6.71-13.71,9.84-20.67,4.86-10.78,7.37-22.23,9.21-33.84C314.51,266.2,314.58,263.68,314.83,260.89Z"/><path class="cls-3" d="M535.85,266.38c-.74.56-1.38,1.08-2,1.55-14.29,10.26-29.52,11.22-45.54,4.6-9.33-3.85-17.66-9.37-25.75-15.3a2.46,2.46,0,0,1-.89-1.68,26,26,0,0,1,.4-2.85,28.36,28.36,0,0,0-.12-2.92c2.83,1.35,5.48,2.66,8.18,3.87C482.85,259.41,496,264,510,265.34a8.89,8.89,0,0,0,2.12.07,3.21,3.21,0,0,0,.46-6.28,4.49,4.49,0,0,0-.95-.16c-13.82-1.28-26.67-5.84-39.18-11.53-3.22-1.46-6.37-3.05-9.22-4.42.88-2.65,1.63-5,2.48-7.32a1.67,1.67,0,0,1,1.05-.89c9.95-2.11,19.91-3.11,29.81.3,7.24,2.5,12.77,7.39,18.14,12.59q7.77,7.53,15.79,14.8A61.54,61.54,0,0,0,535.85,266.38Z"/><path class="cls-3" d="M376.74,171c12.74,5.78,25.07,11.23,37.26,17a43.47,43.47,0,0,1,14.92,11.21,29.64,29.64,0,0,1,6.9,16.16l-6,4.72c-.14-.2-.47-.63-.76-1.08a63.63,63.63,0,0,0-13-15c-2.08-1.75-4.12-1.8-5.45-.14s-.84,3.5,1,5A55.33,55.33,0,0,1,425,225.09c.28.51.52,1,.75,1.49-2.1,1-4.11,1.94-6.16,2.83a1.25,1.25,0,0,1-1-.17c-9.33-6.58-18.94-12.82-26.69-21.38C382.57,197.58,378.18,185.28,376.74,171Z"/><path class="cls-3" d="M451,330.66c-3.62-5.2-7-10.29-10.65-15.21-2.68-3.62-5.64-7-8.53-10.51-7.75-9.3-8.06-19.57-4-30.4,1-2.78,2.19-5.52,3.37-8.24a2.13,2.13,0,0,1,1.3-1.11c2.52-.54,5.08-.94,8.07-1.47.78,3.93,1.84,8.31,2.5,12.74a80.58,80.58,0,0,1-.08,23.92,3.26,3.26,0,0,0,1.88,3.84,3,3,0,0,0,3.81-1,6,6,0,0,0,.83-2.51,89.62,89.62,0,0,0-2.14-36.08,6.56,6.56,0,0,0-1.05-1.74c2.92.05,5.07.05,7.22.16a2.1,2.1,0,0,1,1.5.71c3.91,6.65,7.29,13.52,8.94,21.13,1.69,7.79.3,15.15-3,22.21C457.25,314.8,453.18,322.3,451,330.66Z"/><path class="cls-3" d="M418,245.71c-14,.93-27,5.44-39.21,12.53a17.13,17.13,0,0,0-2.57,1.71,3.07,3.07,0,0,0-.55,4.18,3.11,3.11,0,0,0,3.93,1.18,13.87,13.87,0,0,0,1.67-1c12-7,24.77-11.6,38.8-12.16.71,0,1.42,0,2.13,0a.34.34,0,0,1,.22.09c.44,2.51.87,5,1.37,7.76-6.82,6.55-15,11.45-25,12.71-4.28.54-8.61.88-12.93,1a158.84,158.84,0,0,0-30.34,3.68c-.43.1-.88.15-1.73.28,1-2.56,1.8-4.89,2.76-7.16,3.88-9.14,8.83-17.53,16.9-23.68a40.05,40.05,0,0,1,22.41-8.25c6.09-.34,12.23.21,18.34.43a1.92,1.92,0,0,1,1.36,1C416.41,241.85,417.15,243.76,418,245.71Z"/><path class="cls-3" d="M448.2,219.4c-1.24-1-2.48-1.83-3.63-2.83a1.57,1.57,0,0,1-.42-1.28c5.34-25.31,17.35-45.7,42.06-56.65.39-.17.8-.29,1.32-.48,0,.39.07.63.08.88.11,7.74.16,15.48.34,23.22.13,5.88.28,11.75-1.37,17.48-2.18,7.55-6.95,13.34-12.79,18.3-3.34,2.82-7,5.29-10.47,7.94a2,2,0,0,1-2.4.12c-2.16-1-4.48-1.75-7.08-2.73,1.55-3.66,3.15-7.71,5-11.65a165,165,0,0,1,18-30.25,3.28,3.28,0,0,0-.44-4.67,3.15,3.15,0,0,0-4.75.67,162.17,162.17,0,0,0-17.68,29.08C451.92,210.79,450.1,215.13,448.2,219.4Z"/><path class="cls-2" d="M458.15,237.86c-.24.31-.71.93-1.19,1.54a10.69,10.69,0,0,0-2.19,8.91c.2,1.08.54,2.13.73,3.21a4.28,4.28,0,0,1-5.41,5c-.87-.22-1.71-.56-2.57-.85a10.82,10.82,0,0,0-9.81,1.18c-1.92,1.25-3.83,2.6-6.24,1.26s-2.35-3.77-2.25-6.13c.17-4.24-1.73-7.39-5-9.92-2.49-1.93-3.09-4.12-1.65-6.18a5.19,5.19,0,0,1,2.69-2,12.84,12.84,0,0,0,9.95-9c1.35-4,5.61-4.44,7.93-.93A13.7,13.7,0,0,0,455,230.71C458.76,230.81,460.36,234.37,458.15,237.86Z"/><path class="cls-4" d="M484.84,225.65c11.23-3.86,22.41-7.86,33.69-11.52a30.59,30.59,0,0,0,13.34-8.62c3.94-4.31,7.42-9,11-13.69,1.26-1.63,3.19-2.58,5-1.63a18.89,18.89,0,0,1,5.18,3.61c3.9,4.2,3.76,8.5-.45,12.36a39.89,39.89,0,0,1-8.07,5.94,175.73,175.73,0,0,1-17,7.94c-2.93,1.17-6.28,1.28-9.42,1.93-6.39,1.32-12.87,2.33-19.11,4.16-4.81,1.4-9.37.79-14.05.2Z"/><path class="cls-4" d="M439.55,202.42c0-.68-.06-1.36-.08-2-.36-8.38-.59-16.77-1.09-25.15-.58-9.85-4.15-18.7-9.49-26.91a90.74,90.74,0,0,1-10.33-20.54,33.92,33.92,0,0,1-1.59-9.66,5.44,5.44,0,0,1,4.64-5.86c3.89-.76,6.18,0,7,3.93.59,2.72,1.25,5.42,1.7,8.16a108.47,108.47,0,0,0,8.73,28.85,48.11,48.11,0,0,1,4.78,18.05,186.84,186.84,0,0,1,.26,20.49A19.23,19.23,0,0,1,439.55,202.42Z"/><path class="cls-4" d="M409.25,231.6c-8.58-.91-17.18-1.67-25.73-2.8a29.49,29.49,0,0,0-11.88.64,64.86,64.86,0,0,0-20.11,9.3c-1.72,1.2-4,1.2-5.26-.45a20.13,20.13,0,0,1-3.48-6.11c-1.55-5.09.31-8.57,5.31-10.37a38.14,38.14,0,0,1,7.31-1.82,82.53,82.53,0,0,1,23.54-.3c2.58.35,5.06,1.44,7.61,2.08,4,1,8,2,12.06,2.83a11.82,11.82,0,0,1,5.57,2.42c1.64,1.42,3.51,2.57,5.28,3.83Z"/><path class="cls-4" d="M464.68,266.3a55.37,55.37,0,0,1,5.32,5.29c4.75,6.17,10.7,10.9,16.93,15.47a161.23,161.23,0,0,1,16,13.67,25.83,25.83,0,0,1,5.13,8.07,5.51,5.51,0,0,1-2.28,7.43c-3.25,2-5.36,2.08-7.54-.93-1.36-1.88-2.78-3.73-4-5.69a117.72,117.72,0,0,0-22.38-26.27A9.73,9.73,0,0,1,469,278.9c-1.22-3.6-2.75-7.1-4.15-10.63-.21-.52-.43-1-.64-1.53Z"/><path class="cls-3" d="M213.72,449.67a5.45,5.45,0,0,0,.77.22c3.92.75,7.77,1.7,11.56,2.82a.43.43,0,0,1,.16.73l0,0a.42.42,0,0,0,.27.73l3.92.15a.42.42,0,0,1,.3.7l0,0a.44.44,0,0,0,.28.75l5,.17,2,.06a.44.44,0,0,1,.28.75l-.83.78a.42.42,0,0,0,.25.73l5.44.49,2.57.24a.42.42,0,0,1,.24.73l-1.16,1.11a.42.42,0,0,0,.21.72l7.35,1.44a.43.43,0,0,1,.22.73l-.25.24a.42.42,0,0,0,.26.73l.25,0,4.23.36a.43.43,0,0,1,.27.74l-.06,0a.43.43,0,0,0,.31.74l3.35-.11a.44.44,0,0,1,.38.65l-.24.39a.44.44,0,0,0,.39.65l4.88-.22a.43.43,0,0,1,.41.59l-.29.64a.43.43,0,0,0,.46.59l4.62-.77a.43.43,0,0,1,.43.66l-.37.56a.44.44,0,0,0,.48.65l6-1.7h0l-.61,1.17a.44.44,0,0,0,.55.6l.54-.23,3.78-1.47a.42.42,0,0,1,.55.55l-.12.34a.43.43,0,0,0,.65.5l2.91-2.15a.44.44,0,0,1,.17-.07,41.76,41.76,0,0,0,6-1.53c1-.29,1.9-.63,2.84-1l.75-.3a.43.43,0,0,1,.45.72c-.21.18-.43.36-.64.56a58.65,58.65,0,0,0-14.91,19,56.07,56.07,0,0,0-4,10.74,64.37,64.37,0,0,0-.92,25.8c1.77,11.76,3.29,23.56,4.65,35.36.77,6.76.48,13.52-2.3,19.93,0,.05.08.15.28.46,3.63-2.78,7.32-5.46,10.84-8.35A131.28,131.28,0,0,0,306.66,553a.46.46,0,0,1,.19-.13l1.26-.43a1.17,1.17,0,0,0,.7-.66l1.21-3,.91-2.2a1.31,1.31,0,0,1,.21-.36,1.14,1.14,0,0,1,1-.35l1.84.27a1.12,1.12,0,0,0,1.24-.81l2.15-7.37a1.14,1.14,0,0,1,1-.84l1.24-.08a1.15,1.15,0,0,0,1.06-1l.86-6.58a1,1,0,0,1,.27-.59c-6.53-6.56-14.57-14.89-18.77-37.22-.09,3.1.05-3.57.48-.5a66.84,66.84,0,0,0-4.77,30.27,11.39,11.39,0,0,1-.7-1.67c-4.37-13.57-3.49-27,1.63-40.14.41-1.06.84-2.11,1.3-3.13s1.11-1.9,1.65-2.89c.13-.24.23-.48.37-.71a.31.31,0,0,1,.3-.21c.2-2.22.47-4.52.85-6.88l2.73.43c-3.66,23,2.17,39.26,7.71,48.79,6,10.35,13,15.32,13.06,15.36l-.3.42q12.44,10.69,24.51,21.76c5,4.6,9.23,9.88,11.33,16.57,0,0,.16,0,.51.15.91-4.49,2-8.93,2.71-13.41a131.41,131.41,0,0,0,1.9-24,.31.31,0,0,1,.05-.21l.67-1.17a1.19,1.19,0,0,0,.1-.94l-1.06-3.09-.77-2.26a1.12,1.12,0,0,1,.22-1.12,1.43,1.43,0,0,1,.23-.2l1.56-1a1.1,1.1,0,0,0,.42-1.42l-3.25-7a1.12,1.12,0,0,1,.26-1.28l.86-.88a1.13,1.13,0,0,0,.15-1.42l-3.65-5.54a1.09,1.09,0,0,1-.12-1l.67-1.81a1.11,1.11,0,0,0-.35-1.3L361.55,498l-1.43-1.13a1.14,1.14,0,0,1-.38-1.25l.3-.92.73-2.22a1.14,1.14,0,0,0-.37-1.25l-3.65-2.86a1.13,1.13,0,0,1-.4-1.13l.4-1.92a1.18,1.18,0,0,0-.7-1.3l-3.78-1.49-2.08-.83a1.12,1.12,0,0,1-.64-.62l-1.23-3-1.43-3.41a1.12,1.12,0,0,0-.61-.6l-4.93-2.05-3.11-1.31a1.11,1.11,0,0,1-.68-1.15l.16-1.63a1.14,1.14,0,0,0-.84-1.22L330.21,465a1.16,1.16,0,0,1-.84-1.23l.06-.62a1.13,1.13,0,0,0-1-1.24l-7.11-.69a.43.43,0,0,0-.46.44,103.57,103.57,0,0,0,1.16,12l.39.4a1.13,1.13,0,0,1-.05,1.61c.25,1.35.54,2.71.85,4l2.43,3.55a1.16,1.16,0,0,1-.17,1.47l-.7.66a66.87,66.87,0,0,0,16.85,27.76,10.39,10.39,0,0,1-1.64-.8,56.77,56.77,0,0,1-13.67-11.49A61.5,61.5,0,0,1,314.87,481a68.48,68.48,0,0,1-2-6.74,77.08,77.08,0,0,1-2.11-13.82,103.21,103.21,0,0,1,11-11.78c.82-.75,1.64-1.54,2.45-2.32a74.83,74.83,0,0,1-13.55,5.35q-3,.84-6,1.41a65.67,65.67,0,0,1-11.09,1.17c-.31,0-.62,0-.94,0a60.08,60.08,0,0,1-17-2.26,62.45,62.45,0,0,1-11.9-4.78.42.42,0,0,1,.28-.79,84.55,84.55,0,0,0,21.29,1.41c1.71-.11,3.43-.26,5.15-.47a77.22,77.22,0,0,0,8.14-1.38,79.14,79.14,0,0,0,11.93-3.63c.39-.82.75-1.69,1.1-2.54-.07.73-.15,1.46-.22,2.2a77.18,77.18,0,0,0,7.13-3.28c-.47-.08-.69-.15-.93-.17a118.37,118.37,0,0,1-31.91-7.91C263.49,422.15,233,426.13,213.72,449.67Z"/><path class="cls-3" d="M225.62,230.22s23.71,1.61,29.64-21.53c0,0-3.53,23,18.83,31.88,0,0-24.25-4.12-28.09,19.47C246,260,247.75,235.63,225.62,230.22Z"/><path class="cls-3" d="M471.74,369.84s13.51-15.16,1-31.28c0,0,13.65,14.41,31.38,4,0,0-15.48,14.21-1.58,29.15C502.54,371.7,487,357.74,471.74,369.84Z"/><path class="cls-3" d="M460.5,397.3s12.93-.82,14.49-13.76c0,0-.27,12.68,12.46,15.9,0,0-13.41-.5-13.8,12.53C473.65,412,472.85,398.64,460.5,397.3Z"/><path class="cls-3" d="M235.73,410.51S231,393.86,238.94,370a97.71,97.71,0,0,1,15.8-29.14c13.1-16.81,47.93-63.79,46.24-86,0,0,10.84,1.52,9.56,5.23l-1.27,3.7s-7.53,27.24-22.88,48.19c-7.15,9.41-19.8,30.66-25.83,40.94a238.62,238.62,0,0,0-17.62,35.24C240.65,393.68,238.42,404.29,235.73,410.51Z"/><path class="cls-3" d="M349.81,304.58S373.52,335.25,381,366.8c3.17,13.44,5.88,26.81,8.35,37.79q5.82,25.82,14.13,51l3.15,9.49,5.69-2.89s-16.44-51.38-20.1-92.69c-3.63-40.93-37.37-66.5-37.37-66.5Z"/></g></svg>